<?xml version="1.0" encoding="UTF-8"?>
<!-- Created with Inkscape (http://www.inkscape.org/) -->
<svg id="svg8" width="500" height="500" version="1.1" viewBox="0 0 500 500" xmlns="http://www.w3.org/2000/svg" xmlns:cc="http://creativecommons.org/ns#" xmlns:dc="http://purl.org/dc/elements/1.1/" xmlns:rdf="http://www.w3.org/1999/02/22-rdf-syntax-ns#">
 <defs id="defs3473">
  <filter id="filter4040" x="-.010848" y="-.012762" width="1.0217" height="1.0255" color-interpolation-filters="sRGB">
   <feGaussianBlur id="feGaussianBlur4042" stdDeviation="0.71239614"/>
  </filter>
 </defs>
 <metadata id="metadata5">
  <rdf:RDF>
   <cc:Work rdf:about="">
    <dc:format>image/svg+xml</dc:format>
    <dc:type rdf:resource="http://purl.org/dc/dcmitype/StillImage"/>
    <dc:title/>
   </cc:Work>
  </rdf:RDF>
 </metadata>
 <path id="path4018" transform="matrix(.39894 -.061977 -.28925 .79897 322.79 224.94)" d="m235.94 179.56c3.5245 9.0729-11.059 8.2501-11.798 18.119-0.73831 9.8692 19.816 23.003 15.871 32.595-3.9453 9.5925-27.082-8.5803-35.426-3.6892s-2.6143 29.175-12.753 30.775c-10.139 1.6006-4.7844-16.354-14.01-20.115s-29.434 9.788-37.061 2.5646c-7.627-7.2234 8.2766-20.641 5.9383-30.92s-15.797-9.9654-16.345-19.894 18.773-12.812 24.398-20.741c5.6254-7.929-7.1264-11.708 1.1255-17.883 8.252-6.1749 19.704-0.78044 30.353-1.0967 10.65-0.31624 4.7377-19.157 13.856-15.634 9.1183 3.5231 11.027 20.287 18.934 26.96 7.9071 6.6728 13.393 9.8846 16.917 18.957z" fill="#272727" filter="url(#filter4040)" stroke="#4a4039" stroke-linecap="round" stroke-linejoin="bevel" stroke-width="9"/>
 <path id="path4018-7" transform="matrix(.27372 -.044002 -.19846 .56726 329.61 269.69)" d="m235.94 179.56c3.5245 9.0729-11.059 8.2501-11.798 18.119-0.73831 9.8692 19.816 23.003 15.871 32.595-3.9453 9.5925-27.082-8.5803-35.426-3.6892s-2.6143 29.175-12.753 30.775c-10.139 1.6006-4.7844-16.354-14.01-20.115s-29.434 9.788-37.061 2.5646c-7.627-7.2234 8.2766-20.641 5.9383-30.92s-15.797-9.9654-16.345-19.894 18.773-12.812 24.398-20.741c5.6254-7.929-7.1264-11.708 1.1255-17.883 8.252-6.1749 19.704-0.78044 30.353-1.0967 10.65-0.31624 4.7377-19.157 13.856-15.634 9.1183 3.5231 11.027 20.287 18.934 26.96 7.9071 6.6728 13.393 9.8846 16.917 18.957z" fill="#131313"/>
</svg>
