<?xml version="1.0" encoding="UTF-8"?>
<!-- Created with Inkscape (http://www.inkscape.org/) -->
<svg id="svg8" width="500" height="500" version="1.1" viewBox="0 0 500 500" xmlns="http://www.w3.org/2000/svg" xmlns:cc="http://creativecommons.org/ns#" xmlns:dc="http://purl.org/dc/elements/1.1/" xmlns:rdf="http://www.w3.org/1999/02/22-rdf-syntax-ns#">
 <metadata id="metadata5">
  <rdf:RDF>
   <cc:Work rdf:about="">
    <dc:format>image/svg+xml</dc:format>
    <dc:type rdf:resource="http://purl.org/dc/dcmitype/StillImage"/>
    <dc:title/>
   </cc:Work>
  </rdf:RDF>
 </metadata>
 <g id="layer1" transform="translate(0,-573.6)">
  <g id="foundationBlock" transform="translate(-341.22 -443.72)">
   <g id="g5430" transform="translate(-53.033 22.728)">
    <g id="g7426" transform="translate(391.94 425.27)">
     <g id="g2827" transform="matrix(.44921 -.3154 0 .44921 158.34 733.83)">
      <g>
       <circle id="path2725-1-2" cx="396.78" cy="784.59" r="62.5" fill="#54c5d4"/>
       <path id="path2779" transform="matrix(.83583 0 0 .18383 365.7 718.58)" d="m83.036 113.04c-1.6664 5.7958-12.721 3.3792-16.698 7.7602s1.9645 5.5234-3.3389 9.3346-12.344-5.9392-18.755-5.7354c-6.411 0.20379-3.6128 14.035-9.8804 13.059s-0.72837-12.793-5.9928-16.726c-5.2645-3.9335-10.5 0.85225-14.431-3.5709s-0.27889-4.2309-2.6794-10.114c-2.4005-5.8829-13.237-5.4306-13.952-11.591-0.71522-6.1603 11.057-8.4757 13.082-14.201 2.0251-5.725-6.8428-15.258-2.1222-19.842 4.7206-4.5843 17.465 3.0154 23.651 0.84799 6.1857-2.1674-3.6794-13.205 2.7055-14.612s6.9616 15.391 13.085 15.916c6.1239 0.52516 16.499-7.2442 21.118-3.5553 4.6189 3.6888-5.7519 5.8156-2.4546 11.036 3.2973 5.2206 20.261 1.3949 21.913 7.5407 1.6523 6.1458-5.4718 10.471-6.6801 16.531s3.0967 12.125 1.4303 17.921z" fill="#394c13"/>
       <path id="path2779-5" transform="matrix(.38848 0 0 -.15125 401.41 846.15)" d="m83.036 113.04c-1.6664 5.7958-12.721 3.3792-16.698 7.7602s1.9645 5.5234-3.3389 9.3346-12.344-5.9392-18.755-5.7354c-6.411 0.20379-3.6128 14.035-9.8804 13.059s-0.72837-12.793-5.9928-16.726c-5.2645-3.9335-10.5 0.85225-14.431-3.5709s-0.27889-4.2309-2.6794-10.114c-2.4005-5.8829-13.237-5.4306-13.952-11.591-0.71522-6.1603 11.057-8.4757 13.082-14.201 2.0251-5.725-6.8428-15.258-2.1222-19.842 4.7206-4.5843 17.465 3.0154 23.651 0.84799 6.1857-2.1674-3.6794-13.205 2.7055-14.612s6.9616 15.391 13.085 15.916c6.1239 0.52516 16.499-7.2442 21.118-3.5553 4.6189 3.6888-5.7519 5.8156-2.4546 11.036 3.2973 5.2206 20.261 1.3949 21.913 7.5407 1.6523 6.1458-5.4718 10.471-6.6801 16.531s3.0967 12.125 1.4303 17.921z" fill="#394c13"/>
       <g id="text2744" transform="matrix(.51518 .9122 -.85708 .72342 869.66 -206.92)" fill="#efdfdb" stroke="#29241f" aria-label="cssco.">
        <path id="path2749" d="m490.27 790.7q0.71014 0.88074 0.58645 2.0341l-0.7805 7.2783q-0.17061 1.5909-1.7615 1.4203l-0.43749-0.0469q-1.5909-0.17061-1.4203-1.7615l0.65682-6.1249q0.1706-1.5909-1.4203-1.7615l-9.1873-0.98523q-1.5909-0.1706-1.7615 1.4203l-0.65682 6.1249q-0.1706 1.5909-1.7615 1.4203l-0.43749-0.0469q-1.5909-0.1706-1.4203-1.7615l0.7805-7.2783q0.12369-1.1534 1.0044-1.8635l1.4532-1.1717q0.88074-0.71014 2.0341-0.58645l11.494 1.2326q1.1534 0.12369 1.8635 1.0044z"/>
        <path id="path2751" d="m479.28 817.5q0.24557-0.71924 0.65272-1.0452 0.39423-0.28807 0.88633-0.12006 0.45426 0.1551 0.86141-0.17083 0.39422-0.28807 0.63979-1.0073l0.82717-2.4227q0.51699-1.5142-0.99719-2.0312l-1.552-0.52991q-1.5142-0.51698-2.0312 0.99719l-1.202 3.5205q-0.37482 1.0978-1.3904 1.5964l-1.6757 0.82268q-1.0156 0.4986-2.1134 0.12378l-2.9905-1.021q-1.0978-0.37481-1.5964-1.3904l-0.82268-1.6757q-0.4986-1.0156-0.12379-2.1134l1.5768-4.6182q0.37481-1.0978 1.3904-1.5964l1.6757-0.82269q1.0156-0.49859 2.1134-0.12378l0.0379 0.0129q1.5142 0.51699 0.99719 2.0312l-0.14217 0.4164q-0.24557 0.71923-0.63979 1.0073-0.40715 0.32592-0.86141 0.17083-0.45425-0.1551-0.84847 0.13297-0.40716 0.32593-0.65272 1.0452l-0.82718 2.4227q-0.51698 1.5142 0.9972 2.0312l1.1356 0.38774q1.5142 0.51699 2.0312-0.99719l1.2149-3.5583q0.19387-0.56782 0.48745-0.93252 0.33145-0.35178 0.86509-0.67678l1.372-0.7996q0.53364-0.325 1.0147-0.3721 0.51887-0.0342 1.1245 0.17261l3.7097 1.2666q0.56782 0.19387 0.9196 0.52531 0.38963 0.34437 0.66385 0.90294l0.79776 1.6249q0.49859 1.0156 0.12378 2.1134l-1.5768 4.6182q-0.38773 1.1356-1.4033 1.6342l-1.6249 0.79775q-1.0156 0.4986-2.1134 0.12378l-0.0757-0.0258q-1.5142-0.51698-0.99719-2.0312z"/>
        <path id="path2753" d="m469.73 835.23q0.40178-0.64512 0.87206-0.87058 0.44913-0.19151 0.89053 0.0834 0.40744 0.25375 0.87772 0.0283 0.44914-0.19151 0.85092-0.83663l1.3534-2.173q0.84584-1.3581-0.5123-2.204l-1.3921-0.86699q-1.3581-0.84584-2.204 0.5123l-1.9666 3.1577q-0.61323 0.98466-1.7152 1.2408l-1.8183 0.42265q-1.102 0.25615-2.0866-0.35709l-2.6823-1.6706q-0.98465-0.61323-1.2408-1.7152l-0.42264-1.8183q-0.25615-1.102 0.35709-2.0866l2.5798-4.1423q0.61323-0.98465 1.7152-1.2408l1.8183-0.42264q1.102-0.25615 2.0866 0.35709l0.034 0.0211q1.3581 0.84585 0.5123 2.204l-0.23261 0.37349q-0.40177 0.64512-0.85091 0.83663-0.47028 0.22546-0.87772-0.0283-0.40745-0.25375-0.85658-0.0622-0.47029 0.22546-0.87206 0.87058l-1.3534 2.173q-0.84585 1.3581 0.51229 2.204l1.0186 0.63439q1.3581 0.84584 2.204-0.5123l1.9877-3.1916q0.31719-0.5093 0.68561-0.79821 0.40238-0.26776 0.99567-0.46374l1.5172-0.4688q0.59329-0.19598 1.0725-0.13314 0.51317 0.084 1.0564 0.42232l3.3274 2.0723q0.50931 0.31719 0.77706 0.71957 0.30172 0.42352 0.4426 1.0296l0.40983 1.7632q0.25615 1.102-0.35709 2.0866l-2.5798 4.1423q-0.63438 1.0186-1.7364 1.2748l-1.7632 0.40984q-1.102 0.25615-2.0866-0.35709l-0.0679-0.0423q-1.3581-0.84585-0.5123-2.204z"/>
        <path id="path2755" d="m466.27 847.42q9e-3 1.1313-0.80489 1.958l-5.1352 5.2165q-1.1224 1.1402-2.2627 0.0178l-0.31357-0.30867q-1.1402-1.1225-0.0178-2.2627l4.3214-4.3898q1.1224-1.1402-0.0178-2.2627l-6.5848-6.4822q-1.1402-1.1224-2.2627 0.0178l-4.3214 4.3898q-1.1224 1.1402-2.2627 0.0178l-0.31356-0.30867q-1.1402-1.1224-0.0178-2.2627l5.1352-5.2165q0.81378-0.82666 1.9451-0.83554l1.8667-0.0147q1.1313-9e-3 1.958 0.80489l8.2381 8.1097q0.82666 0.81378 0.83555 1.9451z"/>
        <path id="path2757" d="m441.92 865.34q-1.1274-0.27292-1.7556-1.2481l-6.282-9.7518q-0.6282-0.97517-0.41057-2.1146l0.38287-1.7692q0.2393-1.1058 1.2145-1.734l4.1697-2.6861q0.97518-0.6282 2.081-0.38891l1.8245 0.39484q1.1058 0.23929 1.734 1.2145l6.282 9.7518q0.6282 0.97517 0.38891 2.081l-0.39484 1.8245q-0.23929 1.1058-1.2145 1.734l-4.1697 2.6861q-0.97517 0.6282-2.081 0.3889zm0.6762-4.1945q0.86648 1.3451 2.2116 0.47858l2.1857-1.408q1.3451-0.86648 0.47859-2.2116l-5.0256-7.8014q-0.86649-1.3451-2.2116-0.47858l-2.1857 1.408q-1.3451 0.86648-0.47859 2.2116z"/>
        <path id="path2759" d="m423.82 852.02q-0.63696-1.4678 0.83078-2.1047l0.77057-0.33441q1.4677-0.63697 2.1047 0.83078l0.71659 1.6512q0.63696 1.4677-0.83078 2.1047l-0.77057 0.33441q-1.4677 0.63696-2.1047-0.83078z"/>
       </g>
       <path id="path2796" transform="matrix(.88321 0 0 .45704 316.51 704.26)" d="m107.12 132.27c4.4167 8.2129-7.1325 16.405-5.0905 26.157 2.042 9.7525 17.659 7.6637 15.722 17.199-1.9367 9.5353-16.993 9.9525-22.521 17.102s5.127 9.5926-2.9866 14.542c-8.1135 4.9496-15.724-9.5206-25.144-11.476-9.4207-1.9553-16.41 23.443-24.922 19.222-8.5122-4.2208 2.2679-28.4-3.8388-35.527-6.1068-7.1277-19.396 3.9074-19.824-5.6168s10.867-10.573 14.539-19.182c3.6716-8.6086-16.996-25.349-11.027-32.967s24.169 14.79 33.15 10.527c8.9814-4.2636 3.8966-30.085 13.144-28.54 9.2477 1.5457 4.6456 26.415 12.359 31.378 7.7138 4.9633 22.022-11.031 26.439-2.8182z" fill="#394c13"/>
       <ellipse id="path2762" cx="377.59" cy="783.56" rx="9.7377" ry="13.108" fill="#eddad6" stroke="#29241f" stroke-linecap="round" stroke-linejoin="bevel" stroke-width="10"/>
       <ellipse id="path2762-2" cx="410.92" cy="777.19" rx="9.7377" ry="13.108" fill="#efdfdb" stroke="#29241f" stroke-linecap="round" stroke-linejoin="bevel" stroke-width="10"/>
      </g>
      <circle id="path2725-1" cx="396.78" cy="784.59" r="62.5" fill="none" stroke="#29241f" stroke-linecap="round" stroke-linejoin="bevel" stroke-width="8.9561"/>
     </g>
    </g>
   </g>
  </g>
  <g id="mainHouseBlock" transform="translate(10.38 -188.27)"></g>
 </g>
</svg>
