<?xml version="1.0" encoding="UTF-8"?>
<!-- Created with Inkscape (http://www.inkscape.org/) -->
<svg id="svg8" width="500" height="500" version="1.1" viewBox="0 0 500 500" xmlns="http://www.w3.org/2000/svg" xmlns:cc="http://creativecommons.org/ns#" xmlns:dc="http://purl.org/dc/elements/1.1/" xmlns:rdf="http://www.w3.org/1999/02/22-rdf-syntax-ns#">
 <metadata id="metadata5">
  <rdf:RDF>
   <cc:Work rdf:about="">
    <dc:format>image/svg+xml</dc:format>
    <dc:type rdf:resource="http://purl.org/dc/dcmitype/StillImage"/>
    <dc:title/>
   </cc:Work>
  </rdf:RDF>
 </metadata>
 <g id="g5396" transform="translate(553.69 -586.64)">
  <g fill="none">
   <path id="path4877" d="m-416.89 1020a63.015 146.15 0 0 1 63.015-146.15 63.015 146.15 0 0 1 63.015 146.15" stroke="#281f13" stroke-linecap="round" stroke-linejoin="bevel" stroke-width="10.813"/>
   <g>
    <path id="path4883" d="m-405.65 1017.8c-5.7052-4.2937-21.286-14.037-12.404-20.687 9.3444-4.4683 8.9203-15.212 1.128-20.73-4.8894-9.0458 5.4444-12.936 12.063-8.256 8.2518-3.201 9.169-15.839 5.4136-22.904-4.1721-8.5963-12.323-7.5212-16.618-0.11116-3.4093-6.5407-1.0487-21.711 8.7451-20.066 4.1675 3.1441 9.057 9.7037 5.3804 14.894" stroke="#568d3a" stroke-width="1px"/>
    <path id="path4890" d="m-397.18 888.81c2.7415 14.452 27.305 21.276 31.83 4.5724-3.2248-13.47 5.8018-40.816 21.999-24.433 1.878 14.729 5.6662 26.573 22.666 16.93 15.513-10.095 24.975 10.94 8.6732 17.714-16.233 5.8426-7.6514 23.168 7.2836 19.676 22.127 2.5522 0.91557 19.074 1.1936 29.322 7.9687 6.108 29.86 5.66 21.94 23.051-4.6889 5.0458-30.462 13.682-11.085 15.636 10.558-0.34192 18.376 14.205 2.8553 13.719-6.6742 2.5136-10.748 9.2018-12.811 15.7" stroke="#2c501f" stroke-width="2"/>
    <path id="path4896" d="m-405.12 1003.2c-15.43 5.0222-37.395-27.196-10.813-17.92 25.135 1.3407 13.405-21.24-0.65178-27.406-9.8132-24.83 21.285-13.515 27.326-23.538-11.245-12.03-26.511-44.515 1.4534-44.692 13.941 12.389 37.098 14.808 33.097-10.707-4.4629-26.511-45.989 4.0134-16.339 10.105 18.097 9.4955 37.774-34.157 48.409-8.4279-9.9837 8.2374-15.849 28.841 5.2238 20.293 21.025-11.042 22.83 17.934 5.3952 22.657-14.095 24.556 42.73 11.74 26.884 37.786-12.65-4.2784-29.051 2.2251-12.89 14.161 9.097 5.5397 28.384-11.714 24.06 9.3396-3.8259 16.306-39.785 6.2148-22.535 26.145 4.5169 3.3838 11.818 4.3048 13.998 10.213" stroke="#8cc78c" stroke-width="1px"/>
   </g>
  </g>
  <g stroke-linecap="round" stroke-linejoin="bevel" stroke-width="2">
   <path id="path4903" transform="matrix(.62298 0 0 .39129 -518.09 852.3)" d="m224.21 211.16c-0.24293 3.7146-4.547 4.8076-7.8921 6.1349-3.3452 1.3273-5.8425 4.0449-9.1186 2.4913-3.276-1.5536-2.1245-6.0497-1.3198-9.477s-1.8109-8.4729 1.6535-9.8964c3.4643-1.4236 7.5355 0.22719 10.738 2.345 3.2026 2.1178 6.1819 4.6877 5.939 8.4023z" fill="#318a3f" stroke="#4eb750"/>
   <path id="path4903-7" transform="matrix(.061962 -.3333 .20935 .038919 -481.9 1043.3)" d="m224.21 211.16c-0.24293 3.7146-4.547 4.8076-7.8921 6.1349-3.3452 1.3273-5.8425 4.0449-9.1186 2.4913-3.276-1.5536-2.1245-6.0497-1.3198-9.477s-1.8109-8.4729 1.6535-9.8964c3.4643-1.4236 7.5355 0.22719 10.738 2.345 3.2026 2.1178 6.1819 4.6877 5.939 8.4023z" fill="#43bc56" stroke="#4ca04e"/>
   <path id="path4903-7-1" transform="matrix(.35295 .64216 -.40334 .22169 -344.83 715.67)" d="m224.21 211.16c-0.24293 3.7146-4.547 4.8076-7.8921 6.1349-3.3452 1.3273-5.8425 4.0449-9.1186 2.4913-3.276-1.5536-2.1245-6.0497-1.3198-9.477s-1.8109-8.4729 1.6535-9.8964c3.4643-1.4236 7.5355 0.22719 10.738 2.345 3.2026 2.1178 6.1819 4.6877 5.939 8.4023z" fill="#276f32" stroke="#39793b"/>
  </g>
  <g fill="#318a3f" stroke-linecap="round" stroke-linejoin="bevel" stroke-width="2">
   <path id="path4903-7-3" transform="matrix(-.46637 .086701 .054457 .29293 -215.52 923.16)" d="m224.21 211.16c-0.24293 3.7146-4.547 4.8076-7.8921 6.1349-3.3452 1.3273-5.8425 4.0449-9.1186 2.4913-3.276-1.5536-2.1245-6.0497-1.3198-9.477s-1.8109-8.4729 1.6535-9.8964c3.4643-1.4236 7.5355 0.22719 10.738 2.345 3.2026 2.1178 6.1819 4.6877 5.939 8.4023z" stroke="#4ca04e"/>
   <path id="path4903-7-6" transform="matrix(-.1306 -.48335 .1965 -.12674 -326.65 1008.5)" d="m224.21 211.16c-0.24293 3.7146-4.547 4.8076-7.8921 6.1349-3.3452 1.3273-5.8425 4.0449-9.1186 2.4913-3.276-1.5536-2.1245-6.0497-1.3198-9.477s-1.8109-8.4729 1.6535-9.8964c3.4643-1.4236 7.5355 0.22719 10.738 2.345 3.2026 2.1178 6.1819 4.6877 5.939 8.4023z" stroke="#457a47"/>
   <path id="path4903-8" transform="matrix(-.49261 .13193 .082864 .30941 -320.05 808.52)" d="m224.21 211.16c-0.24293 3.7146-4.547 4.8076-7.8921 6.1349-3.3452 1.3273-5.8425 4.0449-9.1186 2.4913-3.276-1.5536-2.1245-6.0497-1.3198-9.477s-1.8109-8.4729 1.6535-9.8964c3.4643-1.4236 7.5355 0.22719 10.738 2.345 3.2026 2.1178 6.1819 4.6877 5.939 8.4023z" stroke="#4eb750"/>
  </g>
  <path id="path4903-7-1-3" transform="matrix(.17476 -.31796 -.19971 -.10977 -338.55 954.08)" d="m224.21 211.16c-0.24293 3.7146-4.547 4.8076-7.8921 6.1349-3.3452 1.3273-5.8425 4.0449-9.1186 2.4913-3.276-1.5536-2.1245-6.0497-1.3198-9.477s-1.8109-8.4729 1.6535-9.8964c3.4643-1.4236 7.5355 0.22719 10.738 2.345 3.2026 2.1178 6.1819 4.6877 5.939 8.4023z" fill="#276f32" stroke="#39793b" stroke-linecap="round" stroke-linejoin="bevel" stroke-width="2"/>
  <path id="path4903-7-6-9" transform="matrix(.39275 -.31054 .19393 .13064 -404.42 996.72)" d="m224.21 211.16c-0.24293 3.7146-4.547 4.8076-7.8921 6.1349-3.3452 1.3273-5.8425 4.0449-9.1186 2.4913-3.276-1.5536-2.1245-6.0497-1.3198-9.477s-1.8109-8.4729 1.6535-9.8964c3.4643-1.4236 7.5355 0.22719 10.738 2.345 3.2026 2.1178 6.1819 4.6877 5.939 8.4023z" fill="#318a3f" stroke="#457a47" stroke-linecap="round" stroke-linejoin="bevel" stroke-width="2"/>
 </g>
</svg>
