<?xml version="1.0" encoding="UTF-8"?>
<!-- Created with Inkscape (http://www.inkscape.org/) -->
<svg id="svg8" width="500" height="500" version="1.1" viewBox="0 0 500 500" xmlns="http://www.w3.org/2000/svg" xmlns:cc="http://creativecommons.org/ns#" xmlns:dc="http://purl.org/dc/elements/1.1/" xmlns:rdf="http://www.w3.org/1999/02/22-rdf-syntax-ns#">
 <metadata id="metadata5">
  <rdf:RDF>
   <cc:Work rdf:about="">
    <dc:format>image/svg+xml</dc:format>
    <dc:type rdf:resource="http://purl.org/dc/dcmitype/StillImage"/>
    <dc:title/>
   </cc:Work>
  </rdf:RDF>
 </metadata>
 <path id="path4098" transform="matrix(1 0 0 .18426 -3.9725 369.78)" d="m178.24 284.08c1.8407 6.4003-8.7512 7.2082-11.442 12.87s7.0422 9.3406 2.45 13.444c-4.5922 4.1031-9.5666-2.0398-15.757-0.51335-6.19 1.5264-6.5416 14.842-12.959 13.43s-2.5278-10.434-7.8804-13.355-19.375 3.1813-22.024-2.8973c-2.6484-6.0786 9.6576-8.5942 7.9596-14.643s-10.756-9.4246-9.5232-15.652c1.2332-6.2273 9.7894 0.67875 14.306-3.7263 4.5168-4.4051 0.7887-15.336 7.1122-17.443 6.3235-2.1072 7.1504 5.8464 13.238 6.0619s11.712-7.2033 16.998-4.2576 3.3385 10.082 7.503 14.867c4.1646 4.7843 8.1768 5.4152 10.018 11.816z" fill="#30522c"/>
 <path id="path15914" d="m138.5 438.16v-63.434" fill="none" stroke="#453e2e" stroke-linecap="square" stroke-width="9"/>
 <path id="path15914-6" d="m260.86 437.53v-62.931" fill="none" stroke="#473a27" stroke-linecap="square" stroke-width="10"/>
 <g>
  <path id="path4065" transform="matrix(1 0 0 .43342 7.6801 294.79)" d="m146.11 248.66c5.0756 1.4701-1.315 9.673 1.8193 14.341s9.4144 2.9132 11.539 8.1461c2.1245 5.2329-8.3012 1.2111-8.7915 6.465s6.7183 10.129 2.756 14.262c-3.9623 4.1336-9.414-1.4197-13.897 1.7006-4.4826 3.1204 1.5529 15.975-4.0776 16.369-5.6304 0.39405-8.9329-15.249-14.144-16.726-5.2108-1.4768-10.565 6.4197-14.564 2.8548-3.9988-3.5649 6.9112-8.1976 5.5102-13.657-1.401-5.4593-10.944-8.7249-10.616-14.007 0.32758-5.282 10.15-3.3067 13.734-7.4691 3.5841-4.1624-3.4416-12.484 1.1914-14.763 4.633-2.279 11.664 11.057 16.864 10.425 5.1998-0.632 7.5995-9.4116 12.675-7.9415z" fill="#3e7a35"/>
  <path id="path4067" transform="matrix(1 0 0 .39569 -10.858 273.91)" d="m174.95 335.21c0.43449 5.0366-9.0865 2.6674-10.528 7.5026-1.4411 4.8352 5.8895 10.555 2.3894 14.266-3.5001 3.7103-12.266-0.62-16.62 1.4503s-2.0431 4.7446-6.925 4.548c-4.8819-0.19665-5.1037-5.1804-9.9192-7.4291s-7.0967 4.6681-9.8669 0.43218c-2.7702-4.2359 6.583-12.405 5.2739-17.086s-13.468-6.0604-11.527-10.646c1.9409-4.5858 12.91 1.2362 16.723-1.8841s-0.10103-12.177 4.5252-14.418c4.6263-2.2411 1.4178 1.7612 6.2646 2.9449s13.457-3.4561 17.453-0.2697c3.9955 3.1864-4.4859 6.1159-2.3399 10.919 2.1461 4.8028 14.662 4.6343 15.097 9.6709z" fill="#33572e"/>
  <path id="path4069" transform="matrix(.81981 -.064374 .023341 .29725 26.159 316.06)" d="m163.16 311.36c0.64346 6.2041-11.072 6.0339-13.85 11.339-2.7785 5.3048 6.1409 14.459 2.3776 18.965s-11.589-6.1777-17.338-4.7594c-5.7483 1.4183-9.2512 18.705-15.019 17.08-5.7679-1.625-3.367-15.299-8.0733-19.483-4.7063-4.1843-8.7293 7.0144-12.169 1.818-3.4397-5.1963 3.5247-12.576 2.6581-18.678-0.86666-6.102-8.4236-8.4192-6.9334-14.151 1.4902-5.7321 11.574 0.66933 16.519-2.951s2.85-12.62 8.6313-14.39c5.7813-1.7692 2.8094 2.1136 8.9586 3.5421s14.062-8.1353 19.216-5.2333c5.1538 2.902-3.0401 15.925 0.075 20.973s14.304-0.27582 14.947 5.9283z" fill="#3e6a38"/>
  <path id="path4071" transform="matrix(.99231 -.12381 .047294 .37906 5.6632 299.12)" d="m148.37 290.84c-1.6236 5.4991-6.6663 5.8121-10.295 10.016s1.1796 9.6196-4.2039 11.273c-5.3835 1.6533-12.045-6.287-17.567-6.607-5.5222-0.32005-6.3133 13.34-10.85 10.634-4.5364-2.706 3.5227-11.43 4.3e-4 -15.385-3.5222-3.9555-14.529-4.1997-16.335-9.4094-1.8063-5.2097 9.9979-4.2928 10.841-9.9042 0.84279-5.6113-5.94-12.431-2.571-16.574 3.369-4.1427 5.0153 0.40706 10.23-1.4661 5.2144-1.8732 8.156-12.515 13.487-11.553 5.3313 0.96207-0.10643 14.917 4.9449 17.294 5.0513 2.3778 10.862-7.2956 14.997-3.3793 4.1352 3.9163 0.15992 9.9343 2.2122 15.226 2.0523 5.2916 6.7328 4.3355 5.1092 9.8346z" fill="#528c4a"/>
  <path id="path4088" transform="matrix(1.4411 0 0 .7497 -53.719 143.79)" d="m149.39 313.57c0.19274 2.9146-4.0101 3.5698-4.7484 6.4741-0.73826 2.9044 4.3567 4.9792 2.5241 7.3086-1.8326 2.3294-6.7367-2.9023-9.6698-1.7412s-1.2948 9.629-4.3702 9.7273c-3.0753 0.0983-1.6013-8.8765-4.606-9.961s-5.9019 4.2205-8.1448 2.0629c-2.2429-2.1576-0.60976-5.7609-1.1268-8.662-0.51706-2.9011-4.5014-2.0955-4.0359-5.1205 0.46543-3.025 6.3218-2.0534 7.973-4.4615s-1.6618-8.8166 1.1809-9.7319 3.0622 4.801 6.1752 5.3046c3.113 0.50361 7.2559-4.8615 10.068-3.3323 2.8125 1.5292 7e-3 4.9826 1.6044 7.451 1.597 2.4684 6.9832 1.7673 7.176 4.6819z" fill="#5ea055"/>
  <path id="path4090" transform="matrix(1 0 0 .50482 8.7394 228.31)" d="m147.46 280.55c-0.36298 2.8235-6.6155 0.9372-8.1454 3.6348s4.7747 9.2501 2.3367 10.715-6.4801-3.1568-9.2848-2.4775c-2.8047 0.6793-3.0035 5.7906-5.902 5.5055-2.8985-0.28517-2.2684-5.5168-4.5849-7.1058-2.3164-1.589-8.2174 1.4294-9.4092-1.1957-1.1918-2.6251 5.4513-5.3866 5.0602-8.4637-0.39112-3.077-4.419-5.6153-3.1247-8.4486 1.2942-2.8333 4.3865 2.331 6.5798 0.43203 2.1932-1.899 0.36014-9.4584 3.197-9.9392 2.8369-0.48083 3.0401 4.8909 6.0486 5.0956s5.549-2.2731 7.9555-0.7527c2.4064 1.5204-0.94738 3.81 0.2882 6.5657s9.3478 3.6116 8.9848 6.4351z" fill="#6dad64"/>
  <path id="path4092" transform="matrix(1.3499 0 0 .94181 -52.059 65.353)" d="m147.31 311.72c0.83365 1.3093-0.36471 3.6139 0.0333 5.2298 0.39799 1.616 2.5732 2.1703 2.166 3.6357s-4.3486-0.72462-5.5373 0.18069 0.57792 5.1944-0.82009 5.8283c-1.398 0.63397-1.7252-2.9283-3.2168-3.019-1.4916-0.0907-3.2896 1.9403-4.6868 1.2447-1.3972-0.6956 0.52104-2.5508-0.35524-3.9582-0.87629-1.4074-2.6699-0.31858-2.7423-1.8252-0.0724-1.5066 2.7246-1.6717 3.3242-3.1198 0.59964-1.4481-1.8362-4.606-0.7399-5.8464 1.0963-1.2405 3.0219 1.2183 4.4211 0.47068s1.2721-2.1675 2.8443-2.0728c1.5722 0.0947 0.84805 1.5474 2.1116 2.618 1.2636 1.0706 2.3642-0.67595 3.1978 0.63337z" fill="#5b9a52"/>
  <path id="path4094" transform="matrix(1 0 0 .52124 -13.242 203.73)" d="m162.88 293.39c-0.0795 1.7532-3.744 1.4425-4.4193 3.1193-0.67528 1.6768 1.199 4.8768-0.10182 5.9808-1.3008 1.104-1.3847-2.6553-3.0686-2.0622-1.6839 0.59309-1.8896 3.8096-3.5618 3.3712-1.6722-0.43848-2.5258-2.2303-3.9413-3.0636s-2.607 0.90643-3.2842-0.73454c-0.67721-1.641 1.3535-4.0214 1.3755-5.734 0.022-1.7127-3.5106-0.90124-3.1121-2.5742 0.39843-1.6729 3.949-1.7782 5.3174-2.8404 1.3683-1.0622 0.37397-2.2097 2.053-2.6523 1.679-0.4426 1.7056 1.6577 3.3335 1.9655 1.6278 0.30784 2.4813-2.1346 4.0171-1.2482 1.5358 0.88645-1.1896 2.0303-0.47489 3.6444 0.71475 1.6141 5.9471 1.0751 5.8676 2.8283z" fill="#4d8346"/>
  <path id="path4096" transform="matrix(.47761 .15114 -.3017 .9534 141.44 53.602)" d="m183.13 288.11c-0.75183 1.2932-2.188 0.71993-3.596 1.5663s-0.36704 2.437-1.989 2.3672c-1.622-0.0697-0.95738-2.3358-2.5638-2.6491s-3.3044 1.0946-4.3108-0.2329-0.82284-2.2021-1.3228-3.6737c-0.50001-1.4716-1.7366-0.92167-1.3662-2.428s1.6976-0.93682 2.7647-2.2047-0.96799-4.2083 0.33774-5.0211c1.3057-0.81281 3.1008 2.5627 4.6926 2.4831s1.2495-2.9317 2.808-2.4358 0.36863 2.2159 1.3436 3.3773c0.97495 1.1614 4.8802 0.60589 5.4354 2.1759 0.55526 1.57-2.8064 1.6076-2.8581 3.1644-0.0517 1.5568 1.3765 2.218 0.62469 3.5112z" fill="#73b16c"/>
  <path id="path4098-7" transform="matrix(-.931 -.02981 -.0060013 .23206 397.69 359.91)" d="m178.24 284.08c1.8407 6.4003-8.7512 7.2082-11.442 12.87s7.0422 9.3406 2.45 13.444c-4.5922 4.1031-9.5666-2.0398-15.757-0.51335-6.19 1.5264-6.5416 14.842-12.959 13.43s-2.5278-10.434-7.8804-13.355-19.375 3.1813-22.024-2.8973c-2.6484-6.0786 9.6576-8.5942 7.9596-14.643s-10.756-9.4246-9.5232-15.652c1.2332-6.2273 9.7894 0.67875 14.306-3.7263 4.5168-4.4051 0.7887-15.336 7.1122-17.443 6.3235-2.1072 7.1504 5.8464 13.238 6.0619s11.712-7.2033 16.998-4.2576 3.3385 10.082 7.503 14.867c4.1646 4.7843 8.1768 5.4152 10.018 11.816z" fill="#30522c"/>
  <path id="path4065-2" transform="matrix(-.96151 0 0 .44662 387.01 289.08)" d="m146.11 248.66c5.0756 1.4701-1.315 9.673 1.8193 14.341s9.4144 2.9132 11.539 8.1461c2.1245 5.2329-8.3012 1.2111-8.7915 6.465s6.7183 10.129 2.756 14.262c-3.9623 4.1336-9.414-1.4197-13.897 1.7006-4.4826 3.1204 1.5529 15.975-4.0776 16.369-5.6304 0.39405-8.9329-15.249-14.144-16.726-5.2108-1.4768-10.565 6.4197-14.564 2.8548-3.9988-3.5649 6.9112-8.1976 5.5102-13.657-1.401-5.4593-10.944-8.7249-10.616-14.007 0.32758-5.282 10.15-3.3067 13.734-7.4691 3.5841-4.1624-3.4416-12.484 1.1914-14.763 4.633-2.279 11.664 11.057 16.864 10.425 5.1998-0.632 7.5995-9.4116 12.675-7.9415z" fill="#3e7a35"/>
  <path id="path4067-8" transform="matrix(-.84759 0 0 .40773 386.91 267.57)" d="m174.95 335.21c0.43449 5.0366-9.0865 2.6674-10.528 7.5026-1.4411 4.8352 5.8895 10.555 2.3894 14.266-3.5001 3.7103-12.266-0.62-16.62 1.4503s-2.0431 4.7446-6.925 4.548c-4.8819-0.19665-5.1037-5.1804-9.9192-7.4291s-7.0967 4.6681-9.8669 0.43218c-2.7702-4.2359 6.583-12.405 5.2739-17.086s-13.468-6.0604-11.527-10.646c1.9409-4.5858 12.91 1.2362 16.723-1.8841s-0.10103-12.177 4.5252-14.418c4.6263-2.2411 1.4178 1.7612 6.2646 2.9449s13.457-3.4561 17.453-0.2697c3.9955 3.1864-4.4859 6.1159-2.3399 10.919 2.1461 4.8028 14.662 4.6343 15.097 9.6709z" fill="#33572e"/>
  <path id="path4069-9" transform="matrix(-.69486 -.066333 -.019784 .3063 355.53 311.01)" d="m163.16 311.36c0.64346 6.2041-11.072 6.0339-13.85 11.339-2.7785 5.3048 6.1409 14.459 2.3776 18.965s-11.589-6.1777-17.338-4.7594c-5.7483 1.4183-9.2512 18.705-15.019 17.08-5.7679-1.625-3.367-15.299-8.0733-19.483-4.7063-4.1843-8.7293 7.0144-12.169 1.818-3.4397-5.1963 3.5247-12.576 2.6581-18.678-0.86666-6.102-8.4236-8.4192-6.9334-14.151 1.4902-5.7321 11.574 0.66933 16.519-2.951s2.85-12.62 8.6313-14.39c5.7813-1.7692 2.8094 2.1136 8.9586 3.5421s14.062-8.1353 19.216-5.2333c5.1538 2.902-3.0401 15.925 0.075 20.973s14.304-0.27582 14.947 5.9283z" fill="#3e6a38"/>
  <path id="path4071-0" transform="matrix(-.84107 -.12757 -.040086 .3906 372.9 293.55)" d="m148.37 290.84c-1.6236 5.4991-6.6663 5.8121-10.295 10.016s1.1796 9.6196-4.2039 11.273c-5.3835 1.6533-12.045-6.287-17.567-6.607-5.5222-0.32005-6.3133 13.34-10.85 10.634-4.5364-2.706 3.5227-11.43 4.3e-4 -15.385-3.5222-3.9555-14.529-4.1997-16.335-9.4094-1.8063-5.2097 9.9979-4.2928 10.841-9.9042 0.84279-5.6113-5.94-12.431-2.571-16.574 3.369-4.1427 5.0153 0.40706 10.23-1.4661 5.2144-1.8732 8.156-12.515 13.487-11.553 5.3313 0.96207-0.10643 14.917 4.9449 17.294 5.0513 2.3778 10.862-7.2956 14.997-3.3793 4.1352 3.9163 0.15992 9.9343 2.2122 15.226 2.0523 5.2916 6.7328 4.3355 5.1092 9.8346z" fill="#528c4a"/>
  <path id="path4088-0" transform="matrix(-1.2215 0 0 .77252 423.24 133.49)" d="m149.39 313.57c0.19274 2.9146-4.0101 3.5698-4.7484 6.4741-0.73826 2.9044 4.3567 4.9792 2.5241 7.3086-1.8326 2.3294-6.7367-2.9023-9.6698-1.7412s-1.2948 9.629-4.3702 9.7273c-3.0753 0.0983-1.6013-8.8765-4.606-9.961s-5.9019 4.2205-8.1448 2.0629c-2.2429-2.1576-0.60976-5.7609-1.1268-8.662-0.51706-2.9011-4.5014-2.0955-4.0359-5.1205 0.46543-3.025 6.3218-2.0534 7.973-4.4615s-1.6618-8.8166 1.1809-9.7319 3.0622 4.801 6.1752 5.3046c3.113 0.50361 7.2559-4.8615 10.068-3.3323 2.8125 1.5292 7e-3 4.9826 1.6044 7.451 1.597 2.4684 6.9832 1.7673 7.176 4.6819z" fill="#5ea055"/>
  <path id="path4090-2" transform="matrix(-.84759 0 0 .52018 370.3 220.58)" d="m147.46 280.55c-0.36298 2.8235-6.6155 0.9372-8.1454 3.6348s4.7747 9.2501 2.3367 10.715-6.4801-3.1568-9.2848-2.4775c-2.8047 0.6793-3.0035 5.7906-5.902 5.5055-2.8985-0.28517-2.2684-5.5168-4.5849-7.1058-2.3164-1.589-8.2174 1.4294-9.4092-1.1957-1.1918-2.6251 5.4513-5.3866 5.0602-8.4637-0.39112-3.077-4.419-5.6153-3.1247-8.4486 1.2942-2.8333 4.3865 2.331 6.5798 0.43203 2.1932-1.899 0.36014-9.4584 3.197-9.9392 2.8369-0.48083 3.0401 4.8909 6.0486 5.0956s5.549-2.2731 7.9555-0.7527c2.4064 1.5204-0.94738 3.81 0.2882 6.5657s9.3478 3.6116 8.9848 6.4351z" fill="#6dad64"/>
  <path id="path4092-3" transform="matrix(-1.1441 0 0 .97048 421.83 52.665)" d="m147.31 311.72c0.83365 1.3093-0.36471 3.6139 0.0333 5.2298 0.39799 1.616 2.5732 2.1703 2.166 3.6357s-4.3486-0.72462-5.5373 0.18069 0.57792 5.1944-0.82009 5.8283c-1.398 0.63397-1.7252-2.9283-3.2168-3.019-1.4916-0.0907-3.2896 1.9403-4.6868 1.2447-1.3972-0.6956 0.52104-2.5508-0.35524-3.9582-0.87629-1.4074-2.6699-0.31858-2.7423-1.8252-0.0724-1.5066 2.7246-1.6717 3.3242-3.1198 0.59964-1.4481-1.8362-4.606-0.7399-5.8464 1.0963-1.2405 3.0219 1.2183 4.4211 0.47068s1.2721-2.1675 2.8443-2.0728c1.5722 0.0947 0.84805 1.5474 2.1116 2.618 1.2636 1.0706 2.3642-0.67595 3.1978 0.63337z" fill="#5b9a52"/>
  <path id="path4094-3" transform="matrix(-.84759 0 0 .5371 388.93 195.25)" d="m162.88 293.39c-0.0795 1.7532-3.744 1.4425-4.4193 3.1193-0.67528 1.6768 1.199 4.8768-0.10182 5.9808-1.3008 1.104-1.3847-2.6553-3.0686-2.0622-1.6839 0.59309-1.8896 3.8096-3.5618 3.3712-1.6722-0.43848-2.5258-2.2303-3.9413-3.0636s-2.607 0.90643-3.2842-0.73454c-0.67721-1.641 1.3535-4.0214 1.3755-5.734 0.022-1.7127-3.5106-0.90124-3.1121-2.5742 0.39843-1.6729 3.949-1.7782 5.3174-2.8404 1.3683-1.0622 0.37397-2.2097 2.053-2.6523 1.679-0.4426 1.7056 1.6577 3.3335 1.9655 1.6278 0.30784 2.4813-2.1346 4.0171-1.2482 1.5358 0.88645-1.1896 2.0303-0.47489 3.6444 0.71475 1.6141 5.9471 1.0751 5.8676 2.8283z" fill="#4d8346"/>
  <path id="path4096-7" transform="matrix(-.40481 .15574 .25572 .98242 257.82 40.556)" d="m183.13 288.11c-0.75183 1.2932-2.188 0.71993-3.596 1.5663s-0.36704 2.437-1.989 2.3672c-1.622-0.0697-0.95738-2.3358-2.5638-2.6491s-3.3044 1.0946-4.3108-0.2329-0.82284-2.2021-1.3228-3.6737c-0.50001-1.4716-1.7366-0.92167-1.3662-2.428s1.6976-0.93682 2.7647-2.2047-0.96799-4.2083 0.33774-5.0211c1.3057-0.81281 3.1008 2.5627 4.6926 2.4831s1.2495-2.9317 2.808-2.4358 0.36863 2.2159 1.3436 3.3773c0.97495 1.1614 4.8802 0.60589 5.4354 2.1759 0.55526 1.57-2.8064 1.6076-2.8581 3.1644-0.0517 1.5568 1.3765 2.218 0.62469 3.5112z" fill="#73b16c"/>
 </g>
</svg>
