<?xml version="1.0" encoding="UTF-8"?>
<!-- Created with Inkscape (http://www.inkscape.org/) -->
<svg id="svg8" width="100" height="200" version="1.1" viewBox="0 0 100 200" xmlns="http://www.w3.org/2000/svg" xmlns:cc="http://creativecommons.org/ns#" xmlns:dc="http://purl.org/dc/elements/1.1/" xmlns:rdf="http://www.w3.org/1999/02/22-rdf-syntax-ns#">
 <metadata id="metadata5">
  <rdf:RDF>
   <cc:Work rdf:about="">
    <dc:format>image/svg+xml</dc:format>
    <dc:type rdf:resource="http://purl.org/dc/dcmitype/StillImage"/>
    <dc:title/>
   </cc:Work>
  </rdf:RDF>
 </metadata>
 <defs id="defs1459">
  <filter id="filter10056" x="-.031081" y="-.019547" width="1.0622" height="1.0391" color-interpolation-filters="sRGB">
   <feGaussianBlur id="feGaussianBlur10058" stdDeviation="0.91399936"/>
  </filter>
  <filter id="filter10110" x="-.032417" y="-.040474" width="1.0648" height="1.0809" color-interpolation-filters="sRGB">
   <feGaussianBlur id="feGaussianBlur10112" stdDeviation="0.41209407"/>
  </filter>
  <filter id="filter10162" x="-.041744" y="-.031646" width="1.0835" height="1.0633" color-interpolation-filters="sRGB">
   <feGaussianBlur id="feGaussianBlur10164" stdDeviation="0.32220743"/>
  </filter>
  <filter id="filter10194" x="-.019767" y="-.030054" width="1.0395" height="1.0601" color-interpolation-filters="sRGB">
   <feGaussianBlur id="feGaussianBlur10196" stdDeviation="0.82364022"/>
  </filter>
  <filter id="filter7765-2" x="-.069387" y="-.074818" width="1.1388" height="1.1496" color-interpolation-filters="sRGB">
   <feGaussianBlur id="feGaussianBlur7767-8" stdDeviation="1.8320864"/>
  </filter>
   <style id="style1457">@keyframes talk{
      0% {transform: translateY(0);}
      50% {transform: translateY(2.5%);}
      100% {transform: translate(0);}
     }
     #jaw{
      animation: talk 1.5s linear infinite;
     }</style>
 </defs>
 <path id="rect1406-4" transform="matrix(-.90604 0 0 .90604 91.873 -794.99)" d="m19.693 949.49s0.18328-34.47 34.392-34.47c34.692 0 34.392 34.47 34.392 34.47s4.0321 70.264 0 75.412c-4.1265 5.269-68.784 0-68.784 0l2.5774-67.114z" fill="#111726" fill-opacity=".67733" filter="url(#filter10056)"/>
 <path id="rect1426-8" transform="matrix(-.87347 0 0 .8559 91.873 -738.37)" d="m59.551 873.61c-1.2857 0.0162-2.6137 0.0505-3.9824 0.10352-25.28 0.43614-45.854-1.7653-45.786 51.379l-8.7722 0.39847c-2.2726 3.244 0 13.764 0 13.764h10.125c0.0015 0.0402 0.0024 0.0769 0.0039 0.11719h88.861c0-48.835-0.59147-66.263-40.449-65.762z" fill="#161307" fill-opacity=".49419" filter="url(#filter10194)"/>
 <path id="rect7673" d="m9.9163 60.292s2.1473-17.372 29.131-17.372c26.772 0 33.793 17.372 33.793 17.372l-2.7542 10.381 2.7542 59.957s-33.983 3.5841-43.75 3.1779-19.174-3.1779-19.174-3.1779z" fill="#31406b" stroke-width=".90604"/>
 <path id="rect1426" d="m39.857 10.179c1.123 0.01314 2.2829 0.04086 3.4785 0.08372 22.081 0.35277 40.051-1.4277 39.993 41.556l7.6622 0.32229c1.985 2.6238 0 11.133 0 11.133h-8.8439c-0.0013 0.03253-0.0021 0.06215-0.0034 0.09478h-77.617c0-39.499 0.51663-53.595 35.331-53.19z" fill="#9b882f" stroke-width=".90604"/>
 <text id="text1452" transform="matrix(-.88041 .23265 .18861 1.086 0 0)" x="-75.906761" y="53.813564" fill="#232323" font-family="sans-serif" font-size="20.928px" letter-spacing="0px" stroke-width=".90605" word-spacing="0px" style="line-height:1.25" xml:space="preserve"><tspan id="tspan1450" x="-75.906761" y="53.813564" fill="#232323" font-family="futura" stroke-width=".90605">!</tspan></text>
 <path id="rect9986" d="m61.061 65.619h-23.89s-4.2231 13.694 0 17.917c5.6308 5.6308 18.259 5.6308 23.89 0 4.2231-4.2231 0-17.917 0-17.917z" stroke-width=".90604"/>
 <path id="rect9986-4" d="m83.109 64.722h-14.505s-2.5642 13.694 0 17.917c3.4189 5.6308 11.086 5.6308 14.505 0 2.5642-4.2231 0-17.917 0-17.917z" stroke-width=".90604"/>
 <path id="rect9986-0" transform="matrix(-.90604 0 0 .90604 91.873 -794.99)" d="m34.007 951.86h26.367s4.661 15.114 0 19.775c-6.2147 6.2147-20.152 6.2147-26.367 0-4.661-4.661 0-19.775 0-19.775z" fill-opacity=".63081" filter="url(#filter10110)"/>
 <path id="rect9986-4-3" transform="matrix(-.90604 0 0 .90604 91.873 -794.99)" d="m9.673 950.87h16.009s2.8301 15.114 0 19.775c-3.7734 6.2146-12.236 6.2146-16.009 0-2.8301-4.6611 0-19.775 0-19.775z" fill-opacity=".59302" filter="url(#filter10162)"/>
 <g id="jaw">
  <path id="rect7676-7-8" transform="matrix(-.90604 0 0 .90604 174.99 -551.46)" d="m182.19 744.41-61.926 16.948s-3.517 16.878 0.42754 23.739c4.7937 8.3382 7.0307 10.239 24.67 14.965 31.766 8.5117 36.829-1.7143 36.829-14.965z" fill="#111625" fill-opacity=".59216" filter="url(#filter7765-2)"/>
  <path id="rect7676-3" d="m9.9164 119 56.107 15.356s3.1865 15.292-0.38737 21.508c-4.3433 7.5548-6.3701 9.277-22.352 13.559-28.781 7.7119-33.369-1.5532-33.369-13.559z" fill="#31406b" stroke-width=".90604"/>
 </g>
</svg>
