<?xml version="1.0" encoding="UTF-8"?>
<!-- Created with Inkscape (http://www.inkscape.org/) -->
<svg id="svg8" width="75" height="75" version="1.1" viewBox="0 0 75 75" xmlns="http://www.w3.org/2000/svg" xmlns:cc="http://creativecommons.org/ns#" xmlns:dc="http://purl.org/dc/elements/1.1/" xmlns:rdf="http://www.w3.org/1999/02/22-rdf-syntax-ns#">
 <defs id="defs2">
  <style id="style12934">@keyframes talk{
      50% {transform: translate(-4%, 0);}
     }
     #cloud1{
      animation: talk 4.5s linear infinite;
     }
     #cloud2{
      animation: talk 2s linear infinite;
     }
     #cloud3{
      animation: talk 3s linear infinite;
     }</style>
  <filter id="filter6369" x="-.062713" y="-.49147" width="1.1254" height="1.9829" color-interpolation-filters="sRGB">
   <feGaussianBlur id="feGaussianBlur6371" stdDeviation="6.773238"/>
  </filter>
 </defs>
 <metadata id="metadata5">
  <rdf:RDF>
   <cc:Work rdf:about="">
    <dc:format>image/svg+xml</dc:format>
    <dc:type rdf:resource="http://purl.org/dc/dcmitype/StillImage"/>
    <dc:title/>
   </cc:Work>
  </rdf:RDF>
 </metadata>
 <rect id="rect4579-5-3-2-0-9-3-2-0-5-1" transform="matrix(.27129 0 -.19102 .19264 -187.18 -217)" x="1667.9" y="1273" width="160.77" height="33.076" fill="#291502" fill-opacity=".64244" filter="url(#filter6369)" stroke-width=".99953"/>
 <g id="g3966" transform="matrix(.27129 0 0 .27129 -149.58 -270.75)">
  <g id="g5667">
   <g id="g6390">
    <rect id="rect4579-5-3-2-0-9-3-2-0-5" transform="matrix(1 0 -.70412 .71009 0 0)" x="1687.7" y="1501.5" width="160.77" height="33.076" fill="#f6f3e9" stroke-width=".99953"/>
    <rect id="rect4579-5-5-4-4-5-0-4" transform="matrix(.70574 -.70848 0 1 0 0)" x="1088.1" y="1860.6" width="33.151" height="31.315" ry="0" fill="#ece6d3" stroke-width="1.0005"/>
    <rect id="rect4579-5-3-5-4-3-9" x="607.01" y="1089.7" width="160.91" height="31.315" fill="#dacea9" stroke-width="1.606"/>
    <ellipse id="path10891-4-7-7-8" cx="734.76" cy="1119.3" rx="12.148" ry="12.257" fill="#e7db87" stroke="#0d0d0d" stroke-width="7.0001"/>
   </g>
   <g id="g3822" transform="matrix(.60789 0 0 .60789 -185.82 532.1)">
    <g id="g5653" transform="translate(2.7725,-218.11)">
     <rect id="rect4579-5-3-2-0-9-3-2-0-4-8-0-7-9" transform="matrix(1 0 -.70412 .71009 0 0)" x="2508.7" y="1557.3" width="95.555" height="30.253" stroke-width=".91422"/>
     <g id="g6397" fill="#49b8aa" fill-opacity=".59884">
      <rect id="rect4579-5-5-4-4-5-0-5-5-7-3" transform="matrix(.70574 -.70848 0 1 0 0)" x="2106.2" y="2590.9" width="30.321" height="28.643" stroke-width=".91512"/>
      <rect id="rect4579-5-3-5-4-3-3-5-5-9" x="1390.9" y="1098.7" width="95.555" height="28.643" stroke-width="1.1836"/>
      <rect id="rect4579-5-5-4-4-5-0-5-2-0-5-0" transform="matrix(.70574 -.70848 0 1 0 0)" x="1970.8" y="2495" width="30.321" height="28.643" stroke-width=".91512"/>
      <rect id="rect4579-5-3-5-4-3-3-5-5-9-00" x="1412.3" y="1077.2" width="95.555" height="28.643" stroke-width="1.1836"/>
     </g>
    </g>
   </g>
   <ellipse id="path10891-4-7-7-8-1" cx="640.52" cy="1119.4" rx="12.148" ry="12.257" fill="#e7db87" stroke="#0d0d0d" stroke-width="7.0001"/>
  </g>
 </g>
 <ellipse id="path13343" cx="60.28" cy="27.81" rx=".84269" ry="1.4607" fill="#b90909"/>
 <ellipse id="path13343-4" cx="63.651" cy="24.383" rx=".84269" ry="1.4607" fill="#b90909"/>
</svg>
