<?xml version="1.0" encoding="UTF-8"?>
<!-- Created with Inkscape (http://www.inkscape.org/) -->
<svg id="svg8" width="75" height="75" version="1.1" viewBox="0 0 75 75" xmlns="http://www.w3.org/2000/svg" xmlns:cc="http://creativecommons.org/ns#" xmlns:dc="http://purl.org/dc/elements/1.1/" xmlns:rdf="http://www.w3.org/1999/02/22-rdf-syntax-ns#">
 <defs id="defs2">
  <style id="style12934">@keyframes talk{
      50% {transform: translate(-4%, 0);}
     }
     #cloud1{
      animation: talk 4.5s linear infinite;
     }
     #cloud2{
      animation: talk 2s linear infinite;
     }
     #cloud3{
      animation: talk 3s linear infinite;
     }</style>
  <filter id="filter17161" x="-.097149" y="-.10319" width="1.1943" height="1.2064" color-interpolation-filters="sRGB">
   <feGaussianBlur id="feGaussianBlur17163" stdDeviation="7.6096543"/>
  </filter>
  <filter id="filter17063-5" x="-.059714" y="-.060288" width="1.1194" height="1.1206" color-interpolation-filters="sRGB">
   <feGaussianBlur id="feGaussianBlur17065-0" stdDeviation="4.2539534"/>
  </filter>
  <filter id="filter17063-9" x="-.059714" y="-.060288" width="1.1194" height="1.1206" color-interpolation-filters="sRGB">
   <feGaussianBlur id="feGaussianBlur17065-7" stdDeviation="4.2539534"/>
  </filter>
  <filter id="filter6369" x="-.062713" y="-.49147" width="1.1254" height="1.9829" color-interpolation-filters="sRGB">
   <feGaussianBlur id="feGaussianBlur6371" stdDeviation="6.773238"/>
  </filter>
 </defs>
 <metadata id="metadata5">
  <rdf:RDF>
   <cc:Work rdf:about="">
    <dc:format>image/svg+xml</dc:format>
    <dc:type rdf:resource="http://purl.org/dc/dcmitype/StillImage"/>
    <dc:title/>
   </cc:Work>
  </rdf:RDF>
 </metadata>
 <g id="layer1" transform="translate(0,-932.42)">
  <g id="g36" fill="#fff" fill-opacity=".79651">
   <path id="path17131" transform="matrix(1.748 0 0 .5478 -1022.7 512.97)" d="m1538.8 64.471c9.247 10.747-22.827 15.584-17.516 27.678 5.3112 12.094 28.494 7.9518 26.392 21.664-2.1013 13.712-27.513 19.117-34.54 31.628-7.0267 12.511 19.492 14.78 9.2247 24.613s-22.776 1.7731-35.712 5.264-3.6451 18.687-16.949 19.796c-13.304 1.1088-31.394-11.753-43.37-17.464s-19.906 26.671-30.161 17.438c-10.255-9.2331 6.0735-33.968-3.4901-44.12-9.5637-10.152-25.342 1.3635-29.463-11.636-4.1211-12.999 27.055-15.094 26.336-28.247-0.7187-13.153-35.253-23.24-28.969-35.174 6.2842-11.934 39.594-13.039 49.296-22.243 9.7024-9.2044-15.949-29.581-3.4484-33.362 12.501-3.7807 32.739 13.372 46.383 14.146s23.145-15.791 35.899-12.798 3.3215 25.561 13.636 34.666c10.314 9.1042 27.203-2.598 36.45 8.1491z" filter="url(#filter17161)"/>
   <path id="path17045-3" transform="matrix(1.6847 0 0 -.28025 18.199 618.11)" d="m381.34 47.044c-1.4541 4.1407-12.025 12.44-13.534 16.973-1.5089 4.5332-17.11 11.64-19.686 15.24-2.5758 3.6002 7.4168 3.9965 3.7306 6.902-3.6861 2.9055-4.8094 22.707-7.9578 25.751-3.1485 3.044-15.033-4.7371-18.968-2.2477-3.935 2.4893-8.7437 8.1374-13.426 9.3473-4.6826 1.2099-20.311-2.0971-24.863-1.4942s-23.318 2.9936-27.988 2.6535c-4.6708-0.34004 10.449-27.498 6.2076-29.248-4.2417-1.7501-25.53 9.0547-29.329 6.9613-3.7984-2.0934 4.1364-22.225 1.0222-25.629-3.1142-3.4038-28.586 6.6129-29.969 2.3294-1.3839-4.2835 20.599-20.96 18.714-24.908-1.8844-3.948-15.098-8.941-15.547-13.679-0.44927-4.7381 11.631-16.344 12.805-20.703 1.1737-4.3588-10.858-8.052-9.1568-12.077 1.7016-4.025 17.536 0.69003 19.315-3.4589s4.1807-24.508 7.7682-27.195 13.067-9.2482 16.809-11.464-7.0181 5.0498-2.5761 3.8401c4.4419-1.2096 8.3294-5.7343 12.854-6.9728s11-2.1202 15.282-1.2087c4.2817 0.91146 17.315 5.1929 21.578 7.0658 4.2632 1.873 23.894 0.62431 27.991 2.6861 4.097 2.0618 2.2386-1.5563 6.1629 0.75626 3.9243 2.3126 15.015 4.7654 18.097 7.7082 3.0822 2.9428 2.7883 22.315 5.5026 25.77 2.7144 3.4555 10.812-2.3027 11.448 2.5229 0.63575 4.8256-13.251 27.749-13.002 32.421 0.24958 4.6719 22.171 7.2166 20.717 11.357z" filter="url(#filter17063-5)"/>
   <path id="path17045-6" transform="matrix(1.3064 0 0 .24522 556.43 601.88)" d="m381.34 47.044c-1.4541 4.1407-12.025 12.44-13.534 16.973-1.5089 4.5332-17.11 11.64-19.686 15.24-2.5758 3.6002 7.4168 3.9965 3.7306 6.902-3.6861 2.9055-4.8094 22.707-7.9578 25.751-3.1485 3.044-15.033-4.7371-18.968-2.2477-3.935 2.4893-8.7437 8.1374-13.426 9.3473-4.6826 1.2099-20.311-2.0971-24.863-1.4942s-23.318 2.9936-27.988 2.6535c-4.6708-0.34004 10.449-27.498 6.2076-29.248-4.2417-1.7501-25.53 9.0547-29.329 6.9613-3.7984-2.0934 4.1364-22.225 1.0222-25.629-3.1142-3.4038-28.586 6.6129-29.969 2.3294-1.3839-4.2835 20.599-20.96 18.714-24.908-1.8844-3.948-15.098-8.941-15.547-13.679-0.44927-4.7381 11.631-16.344 12.805-20.703 1.1737-4.3588-10.858-8.052-9.1568-12.077 1.7016-4.025 17.536 0.69003 19.315-3.4589s4.1807-24.508 7.7682-27.195 13.067-9.2482 16.809-11.464-7.0181 5.0498-2.5761 3.8401c4.4419-1.2096 8.3294-5.7343 12.854-6.9728s11-2.1202 15.282-1.2087c4.2817 0.91146 17.315 5.1929 21.578 7.0658 4.2632 1.873 23.894 0.62431 27.991 2.6861 4.097 2.0618 2.2386-1.5563 6.1629 0.75626 3.9243 2.3126 15.015 4.7654 18.097 7.7082 3.0822 2.9428 2.7883 22.315 5.5026 25.77 2.7144 3.4555 10.812-2.3027 11.448 2.5229 0.63575 4.8256-13.251 27.749-13.002 32.421 0.24958 4.6719 22.171 7.2166 20.717 11.357z" filter="url(#filter17063-9)"/>
  </g>
  <g id="g3966" transform="matrix(.27129 0 0 .27129 -149.58 661.67)">
   <g id="g5667">
    <rect id="rect4579-5-3-2-0-9-3-2-0-5-1" transform="matrix(1 0 -.70412 .71009 -138.62 303.56)" x="1667.9" y="1273" width="160.77" height="33.076" fill="#291502" fill-opacity=".64244" filter="url(#filter6369)" stroke-width=".99953"/>
    <g id="g13966">
     <rect id="rect4579-5-3-2-0-9-3-2-0-5" transform="matrix(1 0 -.70412 .71009 0 0)" x="1790" y="1646.8" width="160.77" height="33.076" fill="#4e4e4e" stroke-width=".99953"/>
     <rect id="rect4579-5-5-4-4-5-0-4" transform="matrix(.70574 -.70848 0 1 0 0)" x="1088.1" y="1963.8" width="33.151" height="31.315" ry="0" fill="#1d1d1d" stroke-width="1.0005"/>
     <rect id="rect4579-5-3-5-4-3-9" x="607.01" y="1192.9" width="160.91" height="31.315" stroke-width="1.606"/>
     <ellipse id="path10891-4-7-7-8" cx="734.76" cy="1222.5" rx="12.148" ry="12.257" fill="#a19c85" stroke="#1e1e1e" stroke-width="7.0001"/>
    </g>
    <g id="g3822" transform="matrix(.60789 0 0 .60789 -185.82 532.1)">
     <g id="g5653" transform="translate(2.7725 -218.11)">
      <rect id="rect4579-5-3-2-0-9-3-2-0-4-8-0-7-9" transform="matrix(1 0 -.70412 .71009 0 0)" x="2677.1" y="1796.5" width="95.555" height="30.253" stroke-width=".91422"/>
      <g id="g13972" fill="#49b8aa" fill-opacity=".59884">
       <rect id="rect4579-5-5-4-4-5-0-5-5-7-3" transform="matrix(.70574 -.70848 0 1 0 0)" x="2106.2" y="2760.7" width="30.321" height="28.643" stroke-width=".91512"/>
       <rect id="rect4579-5-3-5-4-3-3-5-5-9" x="1412.3" y="1247" width="95.555" height="28.643" stroke-width="1.1836"/>
       <rect id="rect4579-5-5-4-4-5-0-5-2-0-5-0" transform="matrix(.70574 -.70848 0 1 0 0)" x="1970.8" y="2664.7" width="30.321" height="28.643" stroke-width=".91512"/>
      </g>
      <rect id="rect4579-5-3-2-0-9-3-2-0-4-8-0-7-9-5" transform="matrix(1 0 -.70412 .71009 0 0)" x="2648.8" y="1756.1" width="95.555" height="30.253" fill="#363636" stroke-width=".91422"/>
      <rect id="rect4579-5-3-5-4-3-3-5-5-9-00" x="1390.9" y="1268.5" width="95.555" height="28.643" fill="#49b8aa" fill-opacity=".59884" stroke-width="1.1836"/>
     </g>
    </g>
    <ellipse id="path10891-4-7-7-8-1" cx="640.52" cy="1222.7" rx="12.148" ry="12.257" fill="#a19c85" stroke="#181818" stroke-width="7.0001"/>
   </g>
  </g>
 </g>
 <ellipse id="path13343" cx="60.126" cy="55.659" rx=".84269" ry="1.4607" fill="#fffbb6"/>
 <ellipse id="path13343-4" cx="63.497" cy="52.233" rx=".84269" ry="1.4607" fill="#fffbb6"/>
</svg>
