<?xml version="1.0" encoding="UTF-8" standalone="no"?>
<!-- Created with Inkscape (http://www.inkscape.org/) -->

<svg
   xmlns:dc="http://purl.org/dc/elements/1.1/"
   xmlns:cc="http://creativecommons.org/ns#"
   xmlns:rdf="http://www.w3.org/1999/02/22-rdf-syntax-ns#"
   xmlns:svg="http://www.w3.org/2000/svg"
   xmlns="http://www.w3.org/2000/svg"
   xmlns:sodipodi="http://sodipodi.sourceforge.net/DTD/sodipodi-0.dtd"
   xmlns:inkscape="http://www.inkscape.org/namespaces/inkscape"
   id="svg8"
   width="100"
   height="500"
   version="1.1"
   viewBox="0 0 100 500"
   sodipodi:docname="cars.svg"
   inkscape:version="0.92.3 (2405546, 2018-03-11)">
  <sodipodi:namedview
     pagecolor="#ffffff"
     bordercolor="#666666"
     borderopacity="1"
     objecttolerance="10"
     gridtolerance="10"
     guidetolerance="10"
     inkscape:pageopacity="0"
     inkscape:pageshadow="2"
     inkscape:window-width="3840"
     inkscape:window-height="2035"
     id="namedview50"
     showgrid="false"
     inkscape:zoom="1.2586501"
     inkscape:cx="1024.6997"
     inkscape:cy="136.67656"
     inkscape:window-x="-13"
     inkscape:window-y="-13"
     inkscape:window-maximized="1"
     inkscape:current-layer="layer1"
     inkscape:snap-page="true"
     inkscape:snap-bbox="true"
     inkscape:bbox-paths="true"
     inkscape:bbox-nodes="true" />
  <defs
     id="defs2">
    <inkscape:perspective
       sodipodi:type="inkscape:persp3d"
       inkscape:vp_x="0 : 250 : 1"
       inkscape:vp_y="0 : 1000 : 0"
       inkscape:vp_z="2000 : 250 : 1"
       inkscape:persp3d-origin="1000 : 166.66667 : 1"
       id="perspective2800" />
    <linearGradient
       id="linearGradient12776"
       x1="250"
       x2="250"
       y1="607.41998"
       y2="1007.4"
       gradientTransform="matrix(0.2,0,0,0.79246,0,154.28)"
       gradientUnits="userSpaceOnUse">
      <stop
         id="stop12770"
         stop-color="#6c7655"
         offset="0" />
      <stop
         id="stop17252"
         stop-color="#6d8958"
         stop-opacity=".49804"
         offset=".1747" />
      <stop
         id="stop12772"
         stop-color="#141a2b"
         stop-opacity="0"
         offset="1" />
    </linearGradient>
    <linearGradient
       id="linearGradient12784"
       x1="250"
       x2="250"
       y1="607.41998"
       y2="507.42001"
       gradientTransform="matrix(0.19999999,0,0,1.2821,0,-143.16)"
       gradientUnits="userSpaceOnUse">
      <stop
         id="stop12778"
         stop-color="#fff"
         offset="0" />
      <stop
         id="stop12780"
         stop-color="#b3c3ee"
         offset="1" />
    </linearGradient>
    <style
       id="style12934">@keyframes talk{
      50% {transform: translate(-4%, 0);}
     }
     #cloud1{
      animation: talk 4.5s linear infinite;
     }
     #cloud2{
      animation: talk 2s linear infinite;
     }
     #cloud3{
      animation: talk 3s linear infinite;
     }</style>
    <linearGradient
       id="linearGradient17043"
       x1="1000"
       x2="1000"
       y1="952.62"
       y2="999.41998"
       gradientUnits="userSpaceOnUse"
       gradientTransform="scale(0.05,1)">
      <stop
         id="stop15291"
         stop-color="#6c6c6c"
         offset="0" />
      <stop
         id="stop17254"
         stop-color="#767676"
         offset=".5" />
      <stop
         id="stop15293"
         stop-color="#606060"
         offset="1" />
    </linearGradient>
    <filter
       id="filter17063"
       x="-0.059714001"
       y="-0.060288001"
       width="1.1194"
       height="1.1206"
       style="color-interpolation-filters:sRGB">
      <feGaussianBlur
         id="feGaussianBlur17065"
         stdDeviation="4.2539534" />
    </filter>
    <filter
       id="filter17093"
       x="-0.10542"
       y="-0.10736"
       width="1.2108001"
       height="1.2147"
       style="color-interpolation-filters:sRGB">
      <feGaussianBlur
         id="feGaussianBlur17095"
         stdDeviation="4.8312361" />
    </filter>
    <filter
       id="filter17127"
       x="-0.10114"
       y="-0.099636003"
       width="1.2023"
       height="1.1993001"
       style="color-interpolation-filters:sRGB">
      <feGaussianBlur
         id="feGaussianBlur17129"
         stdDeviation="6.7556061" />
    </filter>
    <filter
       id="filter17161"
       x="-0.097149"
       y="-0.10319"
       width="1.1943001"
       height="1.2064"
       style="color-interpolation-filters:sRGB">
      <feGaussianBlur
         id="feGaussianBlur17163"
         stdDeviation="7.6096543" />
    </filter>
    <filter
       id="filter17063-5"
       x="-0.059714001"
       y="-0.060288001"
       width="1.1194"
       height="1.1206"
       style="color-interpolation-filters:sRGB">
      <feGaussianBlur
         id="feGaussianBlur17065-0"
         stdDeviation="4.2539534" />
    </filter>
    <filter
       id="filter17093-8"
       x="-0.10542"
       y="-0.10736"
       width="1.2108001"
       height="1.2147"
       style="color-interpolation-filters:sRGB">
      <feGaussianBlur
         id="feGaussianBlur17095-3"
         stdDeviation="4.8312361" />
    </filter>
    <filter
       id="filter17063-9"
       x="-0.059714001"
       y="-0.060288001"
       width="1.1194"
       height="1.1206"
       style="color-interpolation-filters:sRGB">
      <feGaussianBlur
         id="feGaussianBlur17065-7"
         stdDeviation="4.2539534" />
    </filter>
    <filter
       id="filter17127-8"
       x="-0.10114"
       y="-0.099636003"
       width="1.2023"
       height="1.1993001"
       style="color-interpolation-filters:sRGB">
      <feGaussianBlur
         id="feGaussianBlur17129-8"
         stdDeviation="6.7556061" />
    </filter>
  </defs>
  <metadata
     id="metadata5">
    <rdf:RDF>
      <cc:Work
         rdf:about="">
        <dc:format>image/svg+xml</dc:format>
        <dc:type
           rdf:resource="http://purl.org/dc/dcmitype/StillImage" />
        <dc:title></dc:title>
      </cc:Work>
    </rdf:RDF>
  </metadata>
  <g
     id="layer1"
     transform="translate(0,-507.42)">
    <rect
       id="rect10852-0"
       y="507.42001"
       width="100"
       height="128.21001"
       x="0"
       style="fill:url(#linearGradient12784);stroke-width:0.22360678" />
    <g
       id="g36"
       style="fill:#ffffff;fill-opacity:0.79650999">
      <path
         id="path17131"
         transform="matrix(1.748,0,0,0.5478,-1022.7,512.97)"
         d="m 1538.8,64.471 c 9.247,10.747 -22.827,15.584 -17.516,27.678 5.3112,12.094 28.494,7.9518 26.392,21.664 -2.1013,13.712 -27.513,19.117 -34.54,31.628 -7.0267,12.511 19.492,14.78 9.2247,24.613 -10.2673,9.833 -22.776,1.7731 -35.712,5.264 -12.936,3.4909 -3.6451,18.687 -16.949,19.796 -13.304,1.1088 -31.394,-11.753 -43.37,-17.464 -11.976,-5.711 -19.906,26.671 -30.161,17.438 -10.255,-9.2331 6.0735,-33.968 -3.4901,-44.12 -9.5637,-10.152 -25.342,1.3635 -29.463,-11.636 -4.1211,-12.999 27.055,-15.094 26.336,-28.247 -0.7187,-13.153 -35.253,-23.24 -28.969,-35.174 6.2842,-11.934 39.594,-13.039 49.296,-22.243 9.7024,-9.2044 -15.949,-29.581 -3.4484,-33.362 12.501,-3.7807 32.739,13.372 46.383,14.146 13.644,0.774 23.145,-15.791 35.899,-12.798 12.754,2.993 3.3215,25.561 13.636,34.666 10.314,9.1042 27.203,-2.598 36.45,8.1491 z"
         inkscape:connector-curvature="0"
         style="filter:url(#filter17161)" />
      <path
         id="path17045-3"
         transform="matrix(1.6847,0,0,-0.28025,18.199,618.11)"
         d="m 381.34,47.044 c -1.4541,4.1407 -12.025,12.44 -13.534,16.973 -1.5089,4.5332 -17.11,11.64 -19.686,15.24 -2.5758,3.6002 7.4168,3.9965 3.7306,6.902 -3.6861,2.9055 -4.8094,22.707 -7.9578,25.751 -3.1485,3.044 -15.033,-4.7371 -18.968,-2.2477 -3.935,2.4893 -8.7437,8.1374 -13.426,9.3473 -4.6826,1.2099 -20.311,-2.0971 -24.863,-1.4942 -4.552,0.6029 -23.318,2.9936 -27.988,2.6535 -4.6708,-0.34004 10.449,-27.498 6.2076,-29.248 -4.2417,-1.7501 -25.53,9.0547 -29.329,6.9613 -3.7984,-2.0934 4.1364,-22.225 1.0222,-25.629 -3.1142,-3.4038 -28.586,6.6129 -29.969,2.3294 -1.3839,-4.2835 20.599,-20.96 18.714,-24.908 -1.8844,-3.948 -15.098,-8.941 -15.547,-13.679 -0.44927,-4.7381 11.631,-16.344 12.805,-20.703 1.1737,-4.3588 -10.858,-8.052 -9.1568,-12.077 1.7016,-4.025 17.536,0.69003 19.315,-3.4589 1.779,-4.14893 4.1807,-24.508 7.7682,-27.195 3.5875,-2.687 13.067,-9.2482 16.809,-11.464 3.742,-2.2158 -7.0181,5.0498 -2.5761,3.8401 4.4419,-1.2096 8.3294,-5.7343 12.854,-6.9728 4.5246,-1.2385 11,-2.1202 15.282,-1.2087 4.2817,0.91146 17.315,5.1929 21.578,7.0658 4.2632,1.873 23.894,0.62431 27.991,2.6861 4.097,2.0618 2.2386,-1.5563 6.1629,0.75626 3.9243,2.3126 15.015,4.7654 18.097,7.7082 3.0822,2.9428 2.7883,22.315 5.5026,25.77 2.7144,3.4555 10.812,-2.3027 11.448,2.5229 0.63575,4.8256 -13.251,27.749 -13.002,32.421 0.24958,4.6719 22.171,7.2166 20.717,11.357 z"
         inkscape:connector-curvature="0"
         style="filter:url(#filter17063-5)" />
      <path
         id="path17045-6"
         transform="matrix(1.3064,0,0,0.24522,556.43,601.88)"
         d="m 381.34,47.044 c -1.4541,4.1407 -12.025,12.44 -13.534,16.973 -1.5089,4.5332 -17.11,11.64 -19.686,15.24 -2.5758,3.6002 7.4168,3.9965 3.7306,6.902 -3.6861,2.9055 -4.8094,22.707 -7.9578,25.751 -3.1485,3.044 -15.033,-4.7371 -18.968,-2.2477 -3.935,2.4893 -8.7437,8.1374 -13.426,9.3473 -4.6826,1.2099 -20.311,-2.0971 -24.863,-1.4942 -4.552,0.6029 -23.318,2.9936 -27.988,2.6535 -4.6708,-0.34004 10.449,-27.498 6.2076,-29.248 -4.2417,-1.7501 -25.53,9.0547 -29.329,6.9613 -3.7984,-2.0934 4.1364,-22.225 1.0222,-25.629 -3.1142,-3.4038 -28.586,6.6129 -29.969,2.3294 -1.3839,-4.2835 20.599,-20.96 18.714,-24.908 -1.8844,-3.948 -15.098,-8.941 -15.547,-13.679 -0.44927,-4.7381 11.631,-16.344 12.805,-20.703 1.1737,-4.3588 -10.858,-8.052 -9.1568,-12.077 1.7016,-4.025 17.536,0.69003 19.315,-3.4589 1.779,-4.14893 4.1807,-24.508 7.7682,-27.195 3.5875,-2.687 13.067,-9.2482 16.809,-11.464 3.742,-2.2158 -7.0181,5.0498 -2.5761,3.8401 4.4419,-1.2096 8.3294,-5.7343 12.854,-6.9728 4.5246,-1.2385 11,-2.1202 15.282,-1.2087 4.2817,0.91146 17.315,5.1929 21.578,7.0658 4.2632,1.873 23.894,0.62431 27.991,2.6861 4.097,2.0618 2.2386,-1.5563 6.1629,0.75626 3.9243,2.3126 15.015,4.7654 18.097,7.7082 3.0822,2.9428 2.7883,22.315 5.5026,25.77 2.7144,3.4555 10.812,-2.3027 11.448,2.5229 0.63575,4.8256 -13.251,27.749 -13.002,32.421 0.24958,4.6719 22.171,7.2166 20.717,11.357 z"
         inkscape:connector-curvature="0"
         style="filter:url(#filter17063-9)" />
    </g>
    <rect
       id="rect10852-0-3"
       y="948.51001"
       width="100"
       height="50.914001"
       x="0"
       style="fill:url(#linearGradient17043);stroke-width:0.2774066" />
    <path
       style="color:#000000;font-style:normal;font-variant:normal;font-weight:normal;font-stretch:normal;font-size:medium;line-height:normal;font-family:sans-serif;font-variant-ligatures:normal;font-variant-position:normal;font-variant-caps:normal;font-variant-numeric:normal;font-variant-alternates:normal;font-feature-settings:normal;text-indent:0;text-align:start;text-decoration:none;text-decoration-line:none;text-decoration-style:solid;text-decoration-color:#000000;letter-spacing:normal;word-spacing:normal;text-transform:none;writing-mode:lr-tb;direction:ltr;text-orientation:mixed;dominant-baseline:auto;baseline-shift:baseline;text-anchor:start;white-space:normal;shape-padding:0;clip-rule:nonzero;display:inline;overflow:visible;visibility:visible;opacity:1;isolation:auto;mix-blend-mode:normal;color-interpolation:sRGB;color-interpolation-filters:linearRGB;solid-color:#000000;solid-opacity:1;vector-effect:none;fill:#d7b508;fill-opacity:1;fill-rule:nonzero;stroke:none;stroke-width:0.64228988;stroke-linecap:butt;stroke-linejoin:miter;stroke-miterlimit:4;stroke-dasharray:7.70747824, 7.70747824;stroke-dashoffset:0;stroke-opacity:1;color-rendering:auto;image-rendering:auto;shape-rendering:auto;text-rendering:auto;enable-background:accumulate"
       d="m 9.036012,975.41992 h 1.650145 l 0.206011,-3 H 9.2420226 Z m 3.30029,0 h 1.650145 l 0.206011,-3 h -1.650145 z m 3.30029,0 h 1.650145 l 0.206011,-3 h -1.650145 z m 3.30029,0 h 1.650145 l 0.206011,-3 h -1.650145 z m 3.30029,0 h 1.650145 l 0.206011,-3 h -1.650145 z m 3.30029,0 h 1.650145 l 0.206011,-3 h -1.650145 z m 3.30029,0 h 1.650145 l 0.206011,-3 h -1.650145 z m 3.30029,0 h 1.650145 l 0.206011,-3 h -1.650145 z m 3.300291,0 h 1.650145 l 0.20601,-3 h -1.650145 z m 3.30029,0 h 1.650145 l 0.20601,-3 h -1.650145 z m 3.30029,0 h 1.650145 l 0.20601,-3 h -1.650145 z m 3.30029,0 h 1.650145 l 0.20601,-3 h -1.650145 z m 3.30029,0 h 1.650145 l 0.20601,-3 h -1.650145 z m 3.30029,0 h 1.650145 l 0.20601,-3 h -1.650145 z m 3.30029,0 h 1.650145 l 0.206011,-3 h -1.650145 z m 3.30029,0 h 1.650145 l 0.206011,-3 h -1.650145 z m 3.30029,0 h 1.650145 l 0.206011,-3 h -1.650145 z m 3.30029,0 h 1.650145 l 0.206011,-3 h -1.650145 z m 3.30029,0 h 1.650145 l 0.206011,-3 h -1.650145 z m 3.30029,0 h 1.650145 l 0.206011,-3 h -1.650145 z m 3.30029,0 h 1.650145 l 0.206011,-3 h -1.650145 z m 3.30029,0 h 1.650145 l 0.206012,-3 h -1.650145 z m 3.30029,0 h 1.650145 l 0.206012,-3 h -1.650145 z m 3.30029,0 h 1.650145 l 0.206012,-3 h -1.650145 z m 3.30029,0 h 1.650145 l 0.206012,-3 h -1.650145 z m 3.30029,0 h 1.650145 l 0.206012,-3 h -1.650145 z m 3.30029,0 h 1.650145 l 0.206012,-3 h -1.650145 z m 3.300291,0 h 1.650145 l 0.206011,-3 h -1.650145 z"
       id="path15299"
       inkscape:connector-curvature="0" />
    <g
       id="g45"
       style="fill:#ffffff;fill-opacity:0.79650999">
      <path
         id="path17045"
         transform="matrix(1.2784,0,0,0.52282,-104.54,547.59)"
         d="m 381.34,47.044 c -1.4541,4.1407 -12.025,12.44 -13.534,16.973 -1.5089,4.5332 -17.11,11.64 -19.686,15.24 -2.5758,3.6002 7.4168,3.9965 3.7306,6.902 -3.6861,2.9055 -4.8094,22.707 -7.9578,25.751 -3.1485,3.044 -15.033,-4.7371 -18.968,-2.2477 -3.935,2.4893 -8.7437,8.1374 -13.426,9.3473 -4.6826,1.2099 -20.311,-2.0971 -24.863,-1.4942 -4.552,0.6029 -23.318,2.9936 -27.988,2.6535 -4.6708,-0.34004 10.449,-27.498 6.2076,-29.248 -4.2417,-1.7501 -25.53,9.0547 -29.329,6.9613 -3.7984,-2.0934 4.1364,-22.225 1.0222,-25.629 -3.1142,-3.4038 -28.586,6.6129 -29.969,2.3294 -1.3839,-4.2835 20.599,-20.96 18.714,-24.908 -1.8844,-3.948 -15.098,-8.941 -15.547,-13.679 -0.44927,-4.7381 11.631,-16.344 12.805,-20.703 1.1737,-4.3588 -10.858,-8.052 -9.1568,-12.077 1.7016,-4.025 17.536,0.69003 19.315,-3.4589 1.779,-4.14893 4.1807,-24.508 7.7682,-27.195 3.5875,-2.687 13.067,-9.2482 16.809,-11.464 3.742,-2.2158 -7.0181,5.0498 -2.5761,3.8401 4.4419,-1.2096 8.3294,-5.7343 12.854,-6.9728 4.5246,-1.2385 11,-2.1202 15.282,-1.2087 4.2817,0.91146 17.315,5.1929 21.578,7.0658 4.2632,1.873 23.894,0.62431 27.991,2.6861 4.097,2.0618 2.2386,-1.5563 6.1629,0.75626 3.9243,2.3126 15.015,4.7654 18.097,7.7082 3.0822,2.9428 2.7883,22.315 5.5026,25.77 2.7144,3.4555 10.812,-2.3027 11.448,2.5229 0.63575,4.8256 -13.251,27.749 -13.002,32.421 0.24958,4.6719 22.171,7.2166 20.717,11.357 z"
         inkscape:connector-curvature="0"
         style="filter:url(#filter17063)" />
      <path
         id="path17067"
         transform="matrix(3.2886,0,0,0.50894,-1120.5,521.96)"
         d="m 618.4,73.305 c -0.49501,4.6339 -16.59,6.5986 -18.44,10.741 -1.85,4.1424 -0.0617,10.441 -3.1822,13.669 -3.1205,3.2279 -16.356,1.7431 -20.557,3.4407 -4.2014,1.6975 -11.666,15.181 -16.331,14.849 -4.665,-0.332 -8.1144,-12.188 -12.545,-13.705 -4.4306,-1.517 -13.777,2.0018 -17.37,-0.86308 -3.5928,-2.8649 -6.0532,-16.971 -8.2757,-20.95 -2.2225,-3.979 -12.085,-7.774 -13.186,-12.161 -1.101,-4.387 8.7306,-13.748 9.4559,-18.36 0.72533,-4.612 -4.9964,-10.761 -2.2944,-14.433 2.702,-3.6727 16.121,-8.3909 19.889,-11.278 3.7687,-2.8875 5.1642,-13.978 9.3958,-16.021 4.2316,-2.043 13.726,10.973 18.242,11.029 4.5156,0.05607 12.084,-12.021 16.361,-10.421 4.2767,1.6007 9.2428,12.195 12.941,14.995 3.6979,2.8 12.193,8.5948 14.75,12.442 2.5564,3.8467 0.91977,8.7379 1.3344,13.447 0.41463,4.7094 10.308,18.947 9.8133,23.581 z"
         inkscape:connector-curvature="0"
         style="filter:url(#filter17093)" />
      <path
         id="path17097"
         transform="matrix(0.82356,0,0,0.44422,179.7,521.89)"
         d="m 1201.4,72.022 c 2.0863,6.7839 1.5127,19.852 1.4743,26.81 -0.039,6.9577 9.8192,20.617 7.5985,27.62 -2.2206,7.0028 -17.697,10.8 -21.227,16.769 -3.5308,5.9689 -11.11,19.14 -17.035,22.816 -5.9251,3.6759 -21.103,-0.93805 -28.098,0.94688 -6.9947,1.8849 -20.408,16.506 -27.568,15.818 -7.1595,-0.68774 -17.141,-17.847 -23.717,-21.122 -6.5762,-3.2752 -20.934,2.1227 -25.665,-3.2412 -4.7309,-5.3639 -0.7903,-25.69 -2.9317,-32.457 -2.1413,-6.767 -12.987,-19.047 -13.674,-26.128 -0.687,-7.0811 4.4666,-6.702 5.8031,-13.783 1.3365,-7.0813 2.6774,-28.698 6.8499,-34.345 4.1726,-5.6474 16.241,-0.45266 22.255,-4.6855 6.0139,-4.2328 22.63,-24.295 29.234,-26.584 6.6032,-2.2896 16.052,7.188 23.042,7.6461 6.989,0.45807 26.859,-6.14 33.065,-2.1423 6.2057,3.9977 3.858,16.053 9.2505,20.896 5.3924,4.8436 19.257,18.383 21.343,25.167 z"
         inkscape:connector-curvature="0"
         style="filter:url(#filter17127)" />
      <path
         id="path17067-4"
         transform="matrix(3.2886,0,0,-0.50894,54.893,572.36)"
         d="m 618.4,73.305 c -0.49501,4.6339 -16.59,6.5986 -18.44,10.741 -1.85,4.1424 -0.0617,10.441 -3.1822,13.669 -3.1205,3.2279 -16.356,1.7431 -20.557,3.4407 -4.2014,1.6975 -11.666,15.181 -16.331,14.849 -4.665,-0.332 -8.1144,-12.188 -12.545,-13.705 -4.4306,-1.517 -13.777,2.0018 -17.37,-0.86308 -3.5928,-2.8649 -6.0532,-16.971 -8.2757,-20.95 -2.2225,-3.979 -12.085,-7.774 -13.186,-12.161 -1.101,-4.387 8.7306,-13.748 9.4559,-18.36 0.72533,-4.612 -4.9964,-10.761 -2.2944,-14.433 2.702,-3.6727 16.121,-8.3909 19.889,-11.278 3.7687,-2.8875 5.1642,-13.978 9.3958,-16.021 4.2316,-2.043 13.726,10.973 18.242,11.029 4.5156,0.05607 12.084,-12.021 16.361,-10.421 4.2767,1.6007 9.2428,12.195 12.941,14.995 3.6979,2.8 12.193,8.5948 14.75,12.442 2.5564,3.8467 0.91977,8.7379 1.3344,13.447 0.41463,4.7094 10.308,18.947 9.8133,23.581 z"
         inkscape:connector-curvature="0"
         style="filter:url(#filter17093-8)" />
      <path
         id="path17097-7"
         transform="matrix(1.1024,0,0,0.59462,-1213.9,483.76)"
         d="m 1201.4,72.022 c 2.0863,6.7839 1.5127,19.852 1.4743,26.81 -0.039,6.9577 9.8192,20.617 7.5985,27.62 -2.2206,7.0028 -17.697,10.8 -21.227,16.769 -3.5308,5.9689 -11.11,19.14 -17.035,22.816 -5.9251,3.6759 -21.103,-0.93805 -28.098,0.94688 -6.9947,1.8849 -20.408,16.506 -27.568,15.818 -7.1595,-0.68774 -17.141,-17.847 -23.717,-21.122 -6.5762,-3.2752 -20.934,2.1227 -25.665,-3.2412 -4.7309,-5.3639 -0.7903,-25.69 -2.9317,-32.457 -2.1413,-6.767 -12.987,-19.047 -13.674,-26.128 -0.687,-7.0811 4.4666,-6.702 5.8031,-13.783 1.3365,-7.0813 2.6774,-28.698 6.8499,-34.345 4.1726,-5.6474 16.241,-0.45266 22.255,-4.6855 6.0139,-4.2328 22.63,-24.295 29.234,-26.584 6.6032,-2.2896 16.052,7.188 23.042,7.6461 6.989,0.45807 26.859,-6.14 33.065,-2.1423 6.2057,3.9977 3.858,16.053 9.2505,20.896 5.3924,4.8436 19.257,18.383 21.343,25.167 z"
         inkscape:connector-curvature="0"
         style="filter:url(#filter17127-8)" />
    </g>
    <rect
       id="rect10852"
       y="635.63"
       width="100"
       height="316.98999"
       x="0"
       style="fill:url(#linearGradient12776);stroke-width:0.2236068" />
    <rect
       height="18.390476"
       width="65.314812"
       y="1717.7396"
       x="1582.5493"
       transform="matrix(1,0,-0.70411545,0.71008551,0,0)"
       id="rect4579-5-3-2-0-9-3-2-0-4-8-0-7"
       style="fill:#72c8bd;fill-opacity:0.59883722;stroke-width:0.55574334" />
    <rect
       height="17.41144"
       width="18.431971"
       y="1642.4695"
       x="602.81561"
       transform="matrix(0.70573541,-0.7084755,0,1,0,0)"
       id="rect4579-5-5-4-4-5-0-5-5-7"
       style="fill:#49b8aa;fill-opacity:0.59883722;stroke-width:0.55628926" />
    <rect
       height="17.41144"
       width="65.390144"
       y="1215.3894"
       x="360.1134"
       id="rect4579-5-3-5-4-3-3-5-5"
       style="fill:#49b8aa;fill-opacity:0.59883722;stroke-width:0.76339465" />
    <rect
       height="17.41144"
       width="18.431971"
       y="1576.9014"
       x="510.26703"
       transform="matrix(0.70573541,-0.7084755,0,1,0,0)"
       id="rect4579-5-5-4-4-5-0-5-2-0-5"
       style="fill:#49b8aa;fill-opacity:0.59883722;stroke-width:0.55628926" />
    <rect
       height="18.390476"
       width="65.314812"
       y="1693.2196"
       x="1565.2844"
       transform="matrix(1,0,-0.70411545,0.71008551,0,0)"
       id="rect4579-5-3-2-0-9-3-2-0-4-5-7"
       style="fill:#232323;fill-opacity:1;stroke-width:0.55574334" />
    <g
       id="g3860" />
    <g
       id="g3966"
       transform="matrix(0.32555061,0,0,0.32555061,-122.96689,704.04224)">
      <g
         id="g5667">
        <rect
           height="33.07608"
           width="160.77197"
           y="1501.4994"
           x="1687.6639"
           transform="matrix(1,0,-0.70411545,0.71008551,0,0)"
           id="rect4579-5-3-2-0-9-3-2-0-5"
           style="fill:#f6f3e9;fill-opacity:1;stroke-width:0.99952883" />
        <rect
           height="31.3151"
           width="33.150772"
           y="1860.5789"
           x="1088.1099"
           transform="matrix(0.70573541,-0.7084755,0,1,0,0)"
           id="rect4579-5-5-4-4-5-0-4"
           style="fill:#ece6d3;fill-opacity:1;stroke-width:1.00051069"
           ry="0" />
        <rect
           height="31.315241"
           width="160.90742"
           y="1089.6798"
           x="607.01019"
           id="rect4579-5-3-5-4-3-9"
           style="fill:#dacea9;fill-opacity:1;stroke-width:1.60598516" />
        <ellipse
           ry="12.25685"
           rx="12.147832"
           cy="1119.3057"
           cx="734.76251"
           id="path10891-4-7-7-8"
           style="fill:#e7db87;fill-opacity:1;stroke:#0d0d0d;stroke-width:7.00008631;stroke-opacity:1" />
        <g
           transform="matrix(0.60788724,0,0,0.60788724,-185.81819,532.10063)"
           id="g3822">
          <g
             transform="translate(2.7725426,-218.10668)"
             id="g5653">
            <rect
               height="30.252998"
               width="95.555138"
               y="1557.347"
               x="2508.7273"
               transform="matrix(1,0,-0.70411545,0.71008551,0,0)"
               id="rect4579-5-3-2-0-9-3-2-0-4-8-0-7-9"
               style="fill:#000000;fill-opacity:1;stroke-width:0.91422111" />
            <rect
               height="28.64255"
               width="30.321365"
               y="2590.8892"
               x="2106.2124"
               transform="matrix(0.70573541,-0.7084755,0,1,0,0)"
               id="rect4579-5-5-4-4-5-0-5-5-7-3"
               style="fill:#49b8aa;fill-opacity:0.59883722;stroke-width:0.91511917" />
            <rect
               height="28.64255"
               width="95.555176"
               y="1098.6892"
               x="1390.8735"
               id="rect4579-5-3-5-4-3-3-5-5-9"
               style="fill:#49b8aa;fill-opacity:0.59883722;stroke-width:1.18360984" />
            <rect
               height="28.64255"
               width="30.321365"
               y="2494.9634"
               x="1970.8146"
               transform="matrix(0.70573541,-0.7084755,0,1,0,0)"
               id="rect4579-5-5-4-4-5-0-5-2-0-5-0"
               style="fill:#49b8aa;fill-opacity:0.59883722;stroke-width:0.91511917" />
            <rect
               height="28.64255"
               width="95.555176"
               y="1077.2075"
               x="1412.2726"
               id="rect4579-5-3-5-4-3-3-5-5-9-00"
               style="fill:#49b8aa;fill-opacity:0.59883722;stroke-width:1.18360984" />
          </g>
        </g>
        <ellipse
           ry="12.25685"
           rx="12.147832"
           cy="1119.4448"
           cx="640.51709"
           id="path10891-4-7-7-8-1"
           style="fill:#e7db87;fill-opacity:1;stroke:#0d0d0d;stroke-width:7.00008631;stroke-opacity:1" />
      </g>
    </g>
    <rect
       style="fill:#d5c373;stroke-width:0.99952883"
       id="rect4579-5-3-2-0-9-3-2-5-4"
       transform="matrix(1,0,-0.70411545,0.71008551,0,0)"
       x="1605.6228"
       y="1616.2552"
       width="27.853643"
       height="14.792201" />
    <rect
       style="fill:#b8a238;stroke-width:1.00051069"
       id="rect4579-5-5-4-4-5-2-4"
       transform="matrix(0.70573541,-0.7084755,0,1,0,0)"
       x="687.31561"
       y="1645.1143"
       width="14.825556"
       height="32.599968" />
    <rect
       style="fill:#9b882f;stroke-width:1.00001872"
       id="rect4579-5-3-5-4-7-7"
       x="457.15076"
       y="1158.1825"
       width="27.901676"
       height="32.599968" />
    <g
       style="stroke-width:2.24629998"
       id="g2850"
       transform="matrix(0.44474745,0,0,0.44562264,-460.40773,1056.6652)">
      <rect
         height="40.131001"
         width="34.414001"
         y="244.33"
         x="2077.3"
         id="rect4579-5-3-5-4-7-8-2"
         style="fill:#a6e0e4" />
    </g>
    <g
       id="g5682"
       transform="matrix(0.32386774,0,0,0.32386774,-384.96244,730.43096)">
      <rect
         style="fill:#7a6147;fill-opacity:1;stroke-width:1.06631541"
         id="rect4579-5-3-2-0-9-3-2-0-5-3"
         transform="matrix(1,0,-0.70411545,0.71008551,0,0)"
         x="1920.2198"
         y="1498.9453"
         width="206.47246"
         height="35.286186" />
      <rect
         style="fill:#251d15;fill-opacity:1;stroke-width:0.59287703"
         id="rect4579-5-3-2-0-9-3-2-0-4-5-7-8-1-0"
         transform="matrix(1,0,-0.70411545,0.71008551,0,0)"
         x="1921.736"
         y="1501.9501"
         width="93.511688"
         height="29.484104" />
      <g
         id="g4150">
        <rect
           height="19.618755"
           width="45.882992"
           y="1508.8105"
           x="2018.033"
           transform="matrix(1,0,-0.70411545,0.71008551,0,0)"
           id="rect4579-5-3-2-0-9-3-2-0-4-8-0-7-9-2"
           style="fill:#000000;fill-opacity:1;stroke-width:0.59287703" />
        <rect
           height="29.936607"
           width="19.549513"
           y="2046.9392"
           x="1399.6827"
           transform="matrix(0.70573541,-0.7084755,0,1,0,0)"
           id="rect4579-5-5-4-4-5-0-5-5-7-3-5"
           style="fill:#49b8aa;fill-opacity:0.59883722;stroke-width:0.59345943" />
        <rect
           height="30.017292"
           width="46.02689"
           y="1055.2982"
           x="941.77875"
           id="rect4579-5-3-5-4-3-3-5-5-9-0"
           style="fill:#49b8aa;fill-opacity:0.59883722;stroke-width:0.84094423" />
        <rect
           height="30.017466"
           width="19.663565"
           y="2000.7336"
           x="1334.4645"
           transform="matrix(0.70573541,-0.7084755,0,1,0,0)"
           id="rect4579-5-5-4-4-5-0-5-2-0-5-0-0"
           style="fill:#49b8aa;fill-opacity:0.59883722;stroke-width:0.59345943" />
        <rect
           height="19.618805"
           width="45.963577"
           y="1466.5376"
           x="1988.2678"
           transform="matrix(1,0,-0.70411545,0.71008551,0,0)"
           id="rect4579-5-3-2-0-9-3-2-0-4-5-7-8-1"
           style="fill:#7a6147;fill-opacity:1;stroke-width:0.59287703" />
      </g>
      <rect
         ry="0"
         style="fill:#1d1711;fill-opacity:1;stroke-width:1.0673629"
         id="rect4579-5-5-4-4-5-0-4-9-4"
         transform="matrix(0.70573541,-0.7084755,0,1,0,0)"
         x="1190.1681"
         y="1932.6405"
         width="37.568455"
         height="32.584385" />
      <rect
         style="fill:#372c20;fill-opacity:1;stroke-width:1.87967062"
         id="rect4579-5-3-5-4-3-9-4"
         x="839.79926"
         y="1089.4355"
         width="206.61703"
         height="33.407665" />
      <rect
         ry="0"
         style="fill:#544331;fill-opacity:1;stroke-width:1.0673629"
         id="rect4579-5-5-4-4-5-0-4-9"
         transform="matrix(0.70573541,-0.7084755,0,1,0,0)"
         x="1482.7318"
         y="2139.9146"
         width="35.365845"
         height="33.407513" />
      <ellipse
         style="fill:#999999;fill-opacity:1;stroke:#0b0b0b;stroke-width:10;stroke-miterlimit:4;stroke-dasharray:none;stroke-opacity:1"
         id="path10891-4-7-7-8-4-9"
         cx="1002.6752"
         cy="1124.3441"
         rx="12.959527"
         ry="13.07583" />
      <ellipse
         style="fill:#999999;fill-opacity:1;stroke:#0b0b0b;stroke-width:10;stroke-miterlimit:4;stroke-dasharray:none;stroke-opacity:1"
         id="path10891-4-7-7-8-4"
         cx="892.0741"
         cy="1124.3441"
         rx="12.959527"
         ry="13.07583" />
    </g>
  </g>
</svg>
