<?xml version="1.0" encoding="UTF-8"?>
<!-- Created with Inkscape (http://www.inkscape.org/) -->
<svg id="svg8" width="500" height="500" version="1.1" viewBox="0 0 500 500" xmlns="http://www.w3.org/2000/svg" xmlns:cc="http://creativecommons.org/ns#" xmlns:dc="http://purl.org/dc/elements/1.1/" xmlns:rdf="http://www.w3.org/1999/02/22-rdf-syntax-ns#">
 <metadata id="metadata5">
  <rdf:RDF>
   <cc:Work rdf:about="">
    <dc:format>image/svg+xml</dc:format>
    <dc:type rdf:resource="http://purl.org/dc/dcmitype/StillImage"/>
    <dc:title/>
   </cc:Work>
  </rdf:RDF>
 </metadata>
 <g id="g5153" transform="translate(73.049 -340.75)">
  <rect id="rect4579-5-3-2-0-9" transform="matrix(1 0 -.70549 .70872 0 0)" x="808.32" y="983.3" width="180.13" height="95.472" fill="#e7cf96"/>
  <rect id="rect4579-5-3-9" x="114.31" y="606.67" width="180.43" height="90.217" fill="#749fa8" fill-opacity=".5098"/>
  <rect id="rect4579-5-5-6" transform="matrix(.70711 -.70711 0 1 0 0)" x="65.965" y="720.98" width="95.69" height="90.217" fill="#9dbbc1" fill-opacity=".5098"/>
  <g id="g21275" fill-opacity=".84706">
   <rect id="rect4579-5-5-4-0" transform="matrix(.70711 -.70711 0 1 0 0)" x="322.55" y="963.83" width="91.453" height="25.798" fill="#705321"/>
   <rect id="rect4579-5-3-6" x="198.38" y="735.75" width="29.691" height="25.798" fill="#564019" stroke-width=".21692"/>
   <rect id="rect4579-5-3-2-0-9-1" transform="matrix(1 0 -.70549 .70872 0 0)" x="930.78" y="946.9" width="29.691" height="91.245" fill="#a0772f"/>
  </g>
  <rect id="rect4579-5-5-4" transform="matrix(.70711 -.70711 0 1 0 0)" x="321.14" y="901.41" width="95.69" height="90.217" fill="#9dbbc1" fill-opacity=".5098"/>
  <g id="g21282">
   <rect id="rect4579-5-5-4-0-0" transform="matrix(.70711 -.70711 0 1 0 0)" x="108.82" y="815.7" width="91.453" height="25.798" fill="#705321"/>
   <rect id="rect4579-5-5-4-0-0-2" transform="matrix(.70711 -.70711 0 1 0 0)" x="114.44" y="822.22" width="80.964" height="19.406" fill="#372a15"/>
   <rect id="rect4579-5-3-6-6" x="47.257" y="738.75" width="29.691" height="25.798" fill="#564019" stroke-width=".21692"/>
   <rect id="rect4579-5-3-2-0-9-1-0" transform="matrix(1 0 -.70549 .70872 0 0)" x="782.64" y="951.13" width="29.691" height="91.245" fill="#a0772f"/>
  </g>
  <g id="g9604" transform="translate(0 4.4943)">
   <rect id="rect4579-5-3-2-0-9-4-2-3-4-2" transform="matrix(1 0 -.7366 .67633 0 0)" x="933.54" y="1052" width="36.128" height="18.339" fill="#93702d" fill-opacity=".97647" stroke-width=".19628"/>
   <rect id="rect4579-5-5-2-16-3" transform="matrix(.73279 -.68046 0 1 0 0)" x="247.37" y="892.2" width="18.519" height="8.269" fill="#705321" stroke-width=".1876"/>
   <rect id="rect4579-5-2-9-6" x="145.08" y="723.88" width="36.188" height="8.269" fill="#564019" stroke-width=".19174"/>
   <rect id="rect4579-5-3-2-0-9-4-2-3-4" transform="matrix(1 0 -.7366 .67633 0 0)" x="924.54" y="1041.3" width="36.152" height="11.276" fill="#93702d" fill-opacity=".97647" stroke-width=".19628"/>
   <rect id="rect4579-5-5-2-16" transform="matrix(.73279 -.68046 0 1 0 0)" x="252.94" y="884" width="12.946" height="8.2093" fill="#705321" stroke-width=".1876"/>
   <rect id="rect4579-5-2-9" x="149.16" y="711.88" width="36.188" height="8.269" fill="#564019" stroke-width=".19174"/>
   <rect id="rect4579-5-3-2-0-9-4-2-3-4-1" transform="matrix(1 0 -.7366 .67633 0 0)" x="915.65" y="1027.3" width="36.041" height="7.4974" fill="#93702d" fill-opacity=".97647" stroke-width=".19628"/>
   <rect id="rect4579-5-5-2-16-4" transform="matrix(.73279 -.68046 0 1 0 0)" x="258.52" y="875.79" width="7.372" height="8.2093" fill="#705321" stroke-width=".1876"/>
   <rect id="rect4579-5-2-9-2" x="153.25" y="699.88" width="36.188" height="8.269" fill="#564019" stroke-width=".19174"/>
   <rect id="rect4579-5-3-2-0-9-4-2-3-4-2-2" transform="matrix(1 0 -.7366 .67633 0 0)" x="906.56" y="996.75" width="36.128" height="18.339" fill="#93702d" fill-opacity=".97647" stroke-width=".19628"/>
   <rect id="rect4579-5-5-2-16-3-1" transform="matrix(.73279 -.68046 0 1 0 0)" x="266.05" y="867.57" width="18.519" height="8.269" fill="#646464" stroke-width=".1876"/>
   <rect id="rect4579-5-2-9-6-8" x="158.77" y="686.54" width="36.188" height="8.269" fill="#564019" stroke-width=".19174"/>
   <rect id="rect4579-5-3-2-0-9-4-2-3-4-0" transform="matrix(1 0 -.7366 .67633 0 0)" x="897.55" y="986.07" width="36.152" height="11.276" fill="#93702d" fill-opacity=".97647" stroke-width=".19628"/>
   <rect id="rect4579-5-5-2-16-5" transform="matrix(.73279 -.68046 0 1 0 0)" x="271.63" y="859.36" width="12.946" height="8.2093" fill="#705321" stroke-width=".1876"/>
   <rect id="rect4579-5-2-9-62" x="162.85" y="674.54" width="36.188" height="8.269" fill="#564019" stroke-width=".19174"/>
   <rect id="rect4579-5-3-2-0-9-4-2-3-4-1-9" transform="matrix(1 0 -.7366 .67633 0 0)" x="888.67" y="972.11" width="36.041" height="7.4974" fill="#93702d" fill-opacity=".97647" stroke-width=".19628"/>
   <rect id="rect4579-5-5-2-16-4-8" transform="matrix(.73279 -.68046 0 1 0 0)" x="277.2" y="851.16" width="7.372" height="8.2093" fill="#646464" stroke-width=".1876"/>
   <rect id="rect4579-5-2-9-2-6" x="166.94" y="662.53" width="36.188" height="8.269" fill="#564019" stroke-width=".19174"/>
   <rect id="rect4579-5-3-2-0-9-4-2-3-4-2-29" transform="matrix(1 0 -.7366 .67633 0 0)" x="879.58" y="941.53" width="36.128" height="18.339" fill="#93702d" fill-opacity=".97647" stroke-width=".19628"/>
   <rect id="rect4579-5-5-2-16-3-8" transform="matrix(.73279 -.68046 0 1 0 0)" x="284.74" y="842.94" width="18.519" height="8.269" fill="#646464" stroke-width=".1876"/>
   <rect id="rect4579-5-2-9-6-86" x="172.46" y="649.19" width="36.188" height="8.269" fill="#564019" stroke-width=".19174"/>
   <rect id="rect4579-5-3-2-0-9-4-2-3-4-4" transform="matrix(1 0 -.7366 .67633 0 0)" x="870.57" y="930.86" width="36.152" height="11.276" fill="#93702d" fill-opacity=".97647" stroke-width=".19628"/>
   <rect id="rect4579-5-5-2-16-9" transform="matrix(.73279 -.68046 0 1 0 0)" x="290.31" y="834.73" width="12.946" height="8.2093" fill="#646464" stroke-width=".1876"/>
   <rect id="rect4579-5-2-9-4" x="176.55" y="637.19" width="36.188" height="8.269" fill="#564019" stroke-width=".19174"/>
   <rect id="rect4579-5-3-2-0-9-4-2-3-4-1-4" transform="matrix(1 0 -.7366 .67633 0 0)" x="861.69" y="916.9" width="36.041" height="7.4974" fill="#fff" stroke-width=".19628"/>
   <rect id="rect4579-5-5-2-16-4-1" transform="matrix(.73279 -.68046 0 1 0 0)" x="295.88" y="826.52" width="7.372" height="8.2093" fill="#646464" stroke-width=".1876"/>
   <g id="g21313">
    <rect id="rect4579-5-2-9-2-7" x="180.63" y="625.19" width="36.188" height="8.269" fill="#564019" stroke-width=".19174"/>
    <rect id="rect4579-5-5-4-1" transform="matrix(-.70711 .70711 0 -1 0 0)" x="-314.03" y="-915.29" width="38.318" height="33.797" fill="#705321"/>
    <rect id="rect4579-5-5-4-1-3" transform="matrix(-.70711 .70711 0 -1 0 0)" x="-314.03" y="-915.29" width="18.956" height="49.181" fill="#705321"/>
   </g>
  </g>
  <rect id="rect4579-5-3" x="46.645" y="674.33" width="180.43" height="90.217" fill="#749fa8" fill-opacity=".5098"/>
  <path id="rect4579-5-3-2-0-9-3" transform="translate(-73.049,340.75)" d="m187.35 265.92-67.354 67.662h180.13l67.355-67.662h-180.13zm88.467 1.002h37.861l-66.049 66.352h-37.863l66.051-66.352z" fill="#e7cf96" stroke-width=".84186"/>
  <rect id="rect4579-5-3-0" x="114.42" y="693.58" width="38.176" height="70.973" fill="#a0ced9" fill-opacity=".24709" stroke="#dae7f0" stroke-opacity=".52326" stroke-width=".40798"/>
  <rect id="rect4579-5-3-2-0-9-6-0" transform="matrix(1 0 -.68249 .7309 0 0)" x="767.98" y="831.4" width="41.872" height="32.17" fill="#e7cf96" stroke-width="1.0734"/>
  <rect id="rect4579-5-3-0-9" x="114.17" y="731.85" width="38.176" height="2.5732" fill="#272c2d" fill-opacity=".24709" stroke="#dae7f0" stroke-opacity=".52326" stroke-width=".077685"/>
  <rect id="rect4579-5-3-0-9-8" x="115.75" y="727.98" width="5.3505" height="9.854" fill="#434b4d" stroke="#dae7f0" stroke-opacity=".52326" stroke-width=".056912"/>
 </g>
</svg>
