<?xml version="1.0" encoding="UTF-8"?>
<!-- Created with Inkscape (http://www.inkscape.org/) -->
<svg id="svg8" width="500" height="500" version="1.1" viewBox="0 0 500 500" xmlns="http://www.w3.org/2000/svg" xmlns:cc="http://creativecommons.org/ns#" xmlns:dc="http://purl.org/dc/elements/1.1/" xmlns:rdf="http://www.w3.org/1999/02/22-rdf-syntax-ns#">
 <metadata id="metadata5">
  <rdf:RDF>
   <cc:Work rdf:about="">
    <dc:format>image/svg+xml</dc:format>
    <dc:type rdf:resource="http://purl.org/dc/dcmitype/StillImage"/>
    <dc:title/>
   </cc:Work>
  </rdf:RDF>
 </metadata>
 <g id="layer1" transform="translate(0,-573.6)">
  <g id="foundationBlock" transform="translate(-341.22 -443.72)">
   <g id="g5430" transform="translate(-53.033 22.728)">
    <g id="g7426" transform="translate(391.94 425.27)">
     <rect id="rect4579-5-3-2-0-9-4-2-3-0" transform="matrix(1 0 -.70549 .70872 0 0)" x="1155" y="1367.9" width="180.13" height="95.472" fill="#3c3425"/>
     <rect id="foundationWallNorth" x="189.97" y="924.38" width="180.43" height="45.109" fill="#d5cbbb"/>
     <rect id="foundationWallWest" transform="matrix(.70148 -.71269 0 1 0 0)" x="174.36" y="1117.4" width="96.458" height="45.109" fill="#eae1d1"/>
     <rect id="foundationWallEast" transform="matrix(.70148 -.71269 0 1 0 0)" x="431.58" y="1300.7" width="96.458" height="45.109" fill="#eae1d1"/>
     <rect id="foundationWallSouth" x="122.31" y="993.13" width="180.43" height="45.109" fill="#d5cbbb"/>
     <g fill="#fff" stroke="#b7b7b7" stroke-linecap="round" stroke-linejoin="bevel">
      <path id="path8473" transform="matrix(-.94627 .39449 -.14252 -.34187 165.29 1037.4)" d="m17.898 51.438c0.12804 2.0154-3.4085 2.998-4.5577 4.6261s0.93282 2.956-0.77333 4.0603c-1.7061 1.1043-3.149-1.4501-5.0784-1.592-1.9294-0.14186-2.7072 2.8162-3.8678 1.3091-1.1605-1.5071 0.63988-3.7294 0.37198-5.6192-0.26789-1.8898-4.2637-3.2886-3.3231-5.0416 0.94054-1.753 4.7081 1.3223 6.3437 0.12252 1.6356-1.1998 2.3396-5.378 4.1656-4.7904 1.826 0.58761-0.11287 4.251 1.4875 5.457s5.1035-0.54732 5.2315 1.4681z" stroke-width=".36304"/>
      <path id="path8477" transform="matrix(1.4423 .26093 -.028666 .15846 71.136 946.2)" d="m83.604 293.22c0.25672 1.5996-5.1631 4.2241-5.017 5.8116 0.14607 1.5875 3.9646 5.5834 3.0358 6.8717-0.92871 1.2883-4.3578 0.92265-5.668 1.9312s-2.7018 5.7102-4.1348 6.2505c-1.433 0.54031-2.3307-3.7363-3.937-3.7667-1.6064-0.0304-5.5759 3.1979-7.0682 2.71-1.4924-0.48793-0.60838-6.0408-1.8409-7.077-1.2325-1.0362-3.0215 0.25072-3.5858-1.2487-0.56431-1.4994 2.1345-4.5163 2.4583-6.0196 0.32375-1.5033-4.5841-5.4738-3.7549-6.9465 0.8292-1.4727 5.1599 1.3571 6.3331 0.16643 1.1732-1.1907 2.8798-5.6811 4.3686-6.4792 1.4888-0.79807 1.505 1.9271 3.0382 2.2603s6.3179-3.5272 7.7906-2.7149c1.4727 0.81228 0.76629 4.518 1.787 5.8255 1.0207 1.3075 5.9384 0.82583 6.1951 2.4254z" stroke-width=".67274"/>
      <path id="path8475-4" transform="matrix(-.86033 .11335 -.014804 .072134 248.11 995.89)" d="m103.64 275.81c-0.85859 6.317 4.0227 9.4157 1.5948 15.288-1.429 3.4563-9.6799-2.7954-12.942-1.5435-5.542 2.127-5.6293 7.145-11.869 7.1062-3.6725-0.0228-3.194-5.3772-5.0122-8.3655-3.0892-5.0773-10.936-8.3282-12.478-14.221-0.90754-3.4681 6.1058-1.219 8.2309-4.2724 3.6107-5.1877 4.6041-12.793 9.9701-15.223 3.1583-1.4307 2.525 5.2606 5.9907 6.5707 5.8883 2.2258 14.477-1.1703 18.491 3.9986 2.3625 3.0422-1.471 6.9438-1.9763 10.662z" stroke-width="2"/>
      <path id="path8473-4" transform="matrix(-.67086 -.24909 -.10104 .21587 192.4 999.4)" d="m17.945 51.202c-2.2733 4.2483 1.2222 9.3423-1.4174 13.087-0.96132 1.3638-2.4859-4.6242-4.2515-4.5895-4.848 0.09537-8.553 4.8235-12.98 4.5836-1.6124-0.08735 4.7873-2.4859 4.6199-4.1303-0.45948-4.515-7.7616-7.4985-7.9445-11.948-0.066624-1.6206 2.7354 1.8406 4.2325 0.97635 4.1106-2.3731 6.2528-7.7555 10.416-9.5075 1.5161-0.63808-0.2449 3.5107 0.83484 4.7805 2.9647 3.4866 6.2792 1.8621 9.8812 4.4996 1.3119 0.96055-2.5625 0.70131-3.3905 2.2485z" stroke-width=".36304"/>
      <path id="path8475-9" transform="matrix(-.86661 -.10634 -.027666 .16169 348.38 986.42)" d="m103.64 275.81c-0.85859 6.317 4.0227 9.4157 1.5948 15.288-1.429 3.4563-9.6799-2.7954-12.942-1.5435-5.542 2.127-5.6293 7.145-11.869 7.1062-3.6725-0.0228-3.194-5.3772-5.0122-8.3655-3.0892-5.0773-10.936-8.3282-12.478-14.221-0.90754-3.4681 6.1058-1.219 8.2309-4.2724 3.6107-5.1877 4.6041-12.793 9.9701-15.223 3.1583-1.4307 2.525 5.2606 5.9907 6.5707 5.8883 2.2258 14.477-1.1703 18.491 3.9986 2.3625 3.0422-1.471 6.9438-1.9763 10.662z" stroke-width="1.0652"/>
      <path id="path8477-5" transform="matrix(1.4423 -.22097 -.028666 -.13419 178.31 1065.7)" d="m83.604 293.22c0.25672 1.5996-5.1631 4.2241-5.017 5.8116 0.14607 1.5875 3.9646 5.5834 3.0358 6.8717-0.92871 1.2883-4.3578 0.92265-5.668 1.9312s-2.7018 5.7102-4.1348 6.2505c-1.433 0.54031-2.3307-3.7363-3.937-3.7667-1.6064-0.0304-5.5759 3.1979-7.0682 2.71-1.4924-0.48793-0.60838-6.0408-1.8409-7.077-1.2325-1.0362-3.0215 0.25072-3.5858-1.2487-0.56431-1.4994 2.1345-4.5163 2.4583-6.0196 0.32375-1.5033-4.5841-5.4738-3.7549-6.9465 0.8292-1.4727 5.1599 1.3571 6.3331 0.16643 1.1732-1.1907 2.8798-5.6811 4.3686-6.4792 1.4888-0.79807 1.505 1.9271 3.0382 2.2603s6.3179-3.5272 7.7906-2.7149c1.4727 0.81228 0.76629 4.518 1.787 5.8255 1.0207 1.3075 5.9384 0.82583 6.1951 2.4254z" stroke-width=".67274"/>
      <path id="path8473-4-8" transform="matrix(-.67086 .21094 -.10104 -.18281 299.57 1020.7)" d="m17.945 51.202c-2.2733 4.2483 1.2222 9.3423-1.4174 13.087-0.96132 1.3638-2.4859-4.6242-4.2515-4.5895-4.848 0.09537-8.553 4.8235-12.98 4.5836-1.6124-0.08735 4.7873-2.4859 4.6199-4.1303-0.45948-4.515-7.7616-7.4985-7.9445-11.948-0.066624-1.6206 2.7354 1.8406 4.2325 0.97635 4.1106-2.3731 6.2528-7.7555 10.416-9.5075 1.5161-0.63808-0.2449 3.5107 0.83484 4.7805 2.9647 3.4866 6.2792 1.8621 9.8812 4.4996 1.3119 0.96055-2.5625 0.70131-3.3905 2.2485z" stroke-width=".36304"/>
      <path id="path8477-5-2" transform="matrix(2.0454 -.17628 -.040651 -.10705 88.511 1069.5)" d="m83.604 293.22c0.25672 1.5996-5.1631 4.2241-5.017 5.8116 0.14607 1.5875 3.9646 5.5834 3.0358 6.8717-0.92871 1.2883-4.3578 0.92265-5.668 1.9312s-2.7018 5.7102-4.1348 6.2505c-1.433 0.54031-2.3307-3.7363-3.937-3.7667-1.6064-0.0304-5.5759 3.1979-7.0682 2.71-1.4924-0.48793-0.60838-6.0408-1.8409-7.077-1.2325-1.0362-3.0215 0.25072-3.5858-1.2487-0.56431-1.4994 2.1345-4.5163 2.4583-6.0196 0.32375-1.5033-4.5841-5.4738-3.7549-6.9465 0.8292-1.4727 5.1599 1.3571 6.3331 0.16643 1.1732-1.1907 2.8798-5.6811 4.3686-6.4792 1.4888-0.79807 1.505 1.9271 3.0382 2.2603s6.3179-3.5272 7.7906-2.7149c1.4727 0.81228 0.76629 4.518 1.787 5.8255 1.0207 1.3075 5.9384 0.82583 6.1951 2.4254z" stroke-width=".67274"/>
      <path id="path8473-3-2" transform="matrix(-1.9272 -.24545 -.29027 .21271 260.81 996.16)" d="m17.898 51.438c0.12804 2.0154-3.4085 2.998-4.5577 4.6261s0.93282 2.956-0.77333 4.0603c-1.7061 1.1043-3.149-1.4501-5.0784-1.592-1.9294-0.14186-2.7072 2.8162-3.8678 1.3091-1.1605-1.5071 0.63988-3.7294 0.37198-5.6192-0.26789-1.8898-4.2637-3.2886-3.3231-5.0416 0.94054-1.753 4.7081 1.3223 6.3437 0.12252 1.6356-1.1998 2.3396-5.378 4.1656-4.7904 1.826 0.58761-0.11287 4.251 1.4875 5.457s5.1035-0.54732 5.2315 1.4681z" stroke-width=".36304"/>
      <path id="path8473-2" transform="matrix(-.35538 .65878 -.053525 -.10051 317.77 1014)" d="m17.898 51.438c0.12804 2.0154-3.4085 2.998-4.5577 4.6261s0.93282 2.956-0.77333 4.0603c-1.7061 1.1043-3.149-1.4501-5.0784-1.592-1.9294-0.14186-2.7072 2.8162-3.8678 1.3091-1.1605-1.5071 0.63988-3.7294 0.37198-5.6192-0.26789-1.8898-4.2637-3.2886-3.3231-5.0416 0.94054-1.753 4.7081 1.3223 6.3437 0.12252 1.6356-1.1998 2.3396-5.378 4.1656-4.7904 1.826 0.58761-0.11287 4.251 1.4875 5.457s5.1035-0.54732 5.2315 1.4681z" stroke-width=".36304"/>
      <path id="path8477-8" transform="matrix(.54168 -.57497 -.010766 .092878 282.41 1014.6)" d="m83.604 293.22c0.25672 1.5996-5.1631 4.2241-5.017 5.8116 0.14607 1.5875 3.9646 5.5834 3.0358 6.8717-0.92871 1.2883-4.3578 0.92265-5.668 1.9312s-2.7018 5.7102-4.1348 6.2505c-1.433 0.54031-2.3307-3.7363-3.937-3.7667-1.6064-0.0304-5.5759 3.1979-7.0682 2.71-1.4924-0.48793-0.60838-6.0408-1.8409-7.077-1.2325-1.0362-3.0215 0.25072-3.5858-1.2487-0.56431-1.4994 2.1345-4.5163 2.4583-6.0196 0.32375-1.5033-4.5841-5.4738-3.7549-6.9465 0.8292-1.4727 5.1599 1.3571 6.3331 0.16643 1.1732-1.1907 2.8798-5.6811 4.3686-6.4792 1.4888-0.79807 1.505 1.9271 3.0382 2.2603s6.3179-3.5272 7.7906-2.7149c1.4727 0.81228 0.76629 4.518 1.787 5.8255 1.0207 1.3075 5.9384 0.82583 6.1951 2.4254z" stroke-width=".67274"/>
      <path id="path8475-4-8" transform="matrix(-.3231 .47685 -.0055596 .043138 343.68 959.33)" d="m103.64 275.81c-0.85859 6.317 4.0227 9.4157 1.5948 15.288-1.429 3.4563-9.6799-2.7954-12.942-1.5435-5.542 2.127-5.6293 7.145-11.869 7.1062-3.6725-0.0228-3.194-5.3772-5.0122-8.3655-3.0892-5.0773-10.936-8.3282-12.478-14.221-0.90754-3.4681 6.1058-1.219 8.2309-4.2724 3.6107-5.1877 4.6041-12.793 9.9701-15.223 3.1583-1.4307 2.525 5.2606 5.9907 6.5707 5.8883 2.2258 14.477-1.1703 18.491 3.9986 2.3625 3.0422-1.471 6.9438-1.9763 10.662z" stroke-width="2"/>
      <path id="path8473-4-0" transform="matrix(-.25194 .20385 -.037947 .15682 327.96 981.85)" d="m17.945 51.202c-2.2733 4.2483 1.2222 9.3423-1.4174 13.087-0.96132 1.3638-2.4859-4.6242-4.2515-4.5895-4.848 0.09537-8.553 4.8235-12.98 4.5836-1.6124-0.08735 4.7873-2.4859 4.6199-4.1303-0.45948-4.515-7.7616-7.4985-7.9445-11.948-0.066624-1.6206 2.7354 1.8406 4.2325 0.97635 4.1106-2.3731 6.2528-7.7555 10.416-9.5075 1.5161-0.63808-0.2449 3.5107 0.83484 4.7805 2.9647 3.4866 6.2792 1.8621 9.8812 4.4996 1.3119 0.96055-2.5625 0.70131-3.3905 2.2485z" stroke-width=".36304"/>
      <path id="path8475-9-2" transform="matrix(-.32546 .37057 -.01039 .094001 386.53 899.16)" d="m103.64 275.81c-0.85859 6.317 4.0227 9.4157 1.5948 15.288-1.429 3.4563-9.6799-2.7954-12.942-1.5435-5.542 2.127-5.6293 7.145-11.869 7.1062-3.6725-0.0228-3.194-5.3772-5.0122-8.3655-3.0892-5.0773-10.936-8.3282-12.478-14.221-0.90754-3.4681 6.1058-1.219 8.2309-4.2724 3.6107-5.1877 4.6041-12.793 9.9701-15.223 3.1583-1.4307 2.525 5.2606 5.9907 6.5707 5.8883 2.2258 14.477-1.1703 18.491 3.9986 2.3625 3.0422-1.471 6.9438-1.9763 10.662z" stroke-width="1.0652"/>
      <path id="path8477-5-6" transform="matrix(.54168 -.81484 -.010766 -.052782 322.66 1021.7)" d="m83.604 293.22c0.25672 1.5996-5.1631 4.2241-5.017 5.8116 0.14607 1.5875 3.9646 5.5834 3.0358 6.8717-0.92871 1.2883-4.3578 0.92265-5.668 1.9312s-2.7018 5.7102-4.1348 6.2505c-1.433 0.54031-2.3307-3.7363-3.937-3.7667-1.6064-0.0304-5.5759 3.1979-7.0682 2.71-1.4924-0.48793-0.60838-6.0408-1.8409-7.077-1.2325-1.0362-3.0215 0.25072-3.5858-1.2487-0.56431-1.4994 2.1345-4.5163 2.4583-6.0196 0.32375-1.5033-4.5841-5.4738-3.7549-6.9465 0.8292-1.4727 5.1599 1.3571 6.3331 0.16643 1.1732-1.1907 2.8798-5.6811 4.3686-6.4792 1.4888-0.79807 1.505 1.9271 3.0382 2.2603s6.3179-3.5272 7.7906-2.7149c1.4727 0.81228 0.76629 4.518 1.787 5.8255 1.0207 1.3075 5.9384 0.82583 6.1951 2.4254z" stroke-width=".67274"/>
      <path id="path8473-4-8-9" transform="matrix(-.25194 .43283 -.037947 -.041612 368.2 940.05)" d="m17.945 51.202c-2.2733 4.2483 1.2222 9.3423-1.4174 13.087-0.96132 1.3638-2.4859-4.6242-4.2515-4.5895-4.848 0.09537-8.553 4.8235-12.98 4.5836-1.6124-0.08735 4.7873-2.4859 4.6199-4.1303-0.45948-4.515-7.7616-7.4985-7.9445-11.948-0.066624-1.6206 2.7354 1.8406 4.2325 0.97635 4.1106-2.3731 6.2528-7.7555 10.416-9.5075 1.5161-0.63808-0.2449 3.5107 0.83484 4.7805 2.9647 3.4866 6.2792 1.8621 9.8812 4.4996 1.3119 0.96055-2.5625 0.70131-3.3905 2.2485z" stroke-width=".36304"/>
      <path id="path8477-5-2-4" transform="matrix(.76815 -1.0873 -.015267 -.033416 288.94 1067.5)" d="m83.604 293.22c0.25672 1.5996-5.1631 4.2241-5.017 5.8116 0.14607 1.5875 3.9646 5.5834 3.0358 6.8717-0.92871 1.2883-4.3578 0.92265-5.668 1.9312s-2.7018 5.7102-4.1348 6.2505c-1.433 0.54031-2.3307-3.7363-3.937-3.7667-1.6064-0.0304-5.5759 3.1979-7.0682 2.71-1.4924-0.48793-0.60838-6.0408-1.8409-7.077-1.2325-1.0362-3.0215 0.25072-3.5858-1.2487-0.56431-1.4994 2.1345-4.5163 2.4583-6.0196 0.32375-1.5033-4.5841-5.4738-3.7549-6.9465 0.8292-1.4727 5.1599 1.3571 6.3331 0.16643 1.1732-1.1907 2.8798-5.6811 4.3686-6.4792 1.4888-0.79807 1.505 1.9271 3.0382 2.2603s6.3179-3.5272 7.7906-2.7149c1.4727 0.81228 0.76629 4.518 1.787 5.8255 1.0207 1.3075 5.9384 0.82583 6.1951 2.4254z" stroke-width=".67274"/>
      <path id="path8473-3-2-9" transform="matrix(-.72378 .81964 -.10901 .24773 353.65 946.81)" d="m17.898 51.438c0.12804 2.0154-3.4085 2.998-4.5577 4.6261s0.93282 2.956-0.77333 4.0603c-1.7061 1.1043-3.149-1.4501-5.0784-1.592-1.9294-0.14186-2.7072 2.8162-3.8678 1.3091-1.1605-1.5071 0.63988-3.7294 0.37198-5.6192-0.26789-1.8898-4.2637-3.2886-3.3231-5.0416 0.94054-1.753 4.7081 1.3223 6.3437 0.12252 1.6356-1.1998 2.3396-5.378 4.1656-4.7904 1.826 0.58761-0.11287 4.251 1.4875 5.457s5.1035-0.54732 5.2315 1.4681z" stroke-width=".36304"/>
      <path id="path8475-9-3" transform="matrix(-.86661 .51925 -.027666 .18167 431.68 881.18)" d="m103.64 275.81c-0.85859 6.317 4.0227 9.4157 1.5948 15.288-1.429 3.4563-9.6799-2.7954-12.942-1.5435-5.542 2.127-5.6293 7.145-11.869 7.1062-3.6725-0.0228-3.194-5.3772-5.0122-8.3655-3.0892-5.0773-10.936-8.3282-12.478-14.221-0.90754-3.4681 6.1058-1.219 8.2309-4.2724 3.6107-5.1877 4.6041-12.793 9.9701-15.223 3.1583-1.4307 2.525 5.2606 5.9907 6.5707 5.8883 2.2258 14.477-1.1703 18.491 3.9986 2.3625 3.0422-1.471 6.9438-1.9763 10.662z" stroke-width="1.0652"/>
      <path id="path8477-5-9" transform="matrix(1.4423 -1.2622 -.028666 -.11349 233.52 1103.1)" d="m83.604 293.22c0.25672 1.5996-5.1631 4.2241-5.017 5.8116 0.14607 1.5875 3.9646 5.5834 3.0358 6.8717-0.92871 1.2883-4.3578 0.92265-5.668 1.9312s-2.7018 5.7102-4.1348 6.2505c-1.433 0.54031-2.3307-3.7363-3.937-3.7667-1.6064-0.0304-5.5759 3.1979-7.0682 2.71-1.4924-0.48793-0.60838-6.0408-1.8409-7.077-1.2325-1.0362-3.0215 0.25072-3.5858-1.2487-0.56431-1.4994 2.1345-4.5163 2.4583-6.0196 0.32375-1.5033-4.5841-5.4738-3.7549-6.9465 0.8292-1.4727 5.1599 1.3571 6.3331 0.16643 1.1732-1.1907 2.8798-5.6811 4.3686-6.4792 1.4888-0.79807 1.505 1.9271 3.0382 2.2603s6.3179-3.5272 7.7906-2.7149c1.4727 0.81228 0.76629 4.518 1.787 5.8255 1.0207 1.3075 5.9384 0.82583 6.1951 2.4254z" stroke-width=".67274"/>
      <path id="path8473-4-8-5" transform="matrix(-.67086 .69522 -.10104 -.10987 344.68 999.34)" d="m17.945 51.202c-2.2733 4.2483 1.2222 9.3423-1.4174 13.087-0.96132 1.3638-2.4859-4.6242-4.2515-4.5895-4.848 0.09537-8.553 4.8235-12.98 4.5836-1.6124-0.08735 4.7873-2.4859 4.6199-4.1303-0.45948-4.515-7.7616-7.4985-7.9445-11.948-0.066624-1.6206 2.7354 1.8406 4.2325 0.97635 4.1106-2.3731 6.2528-7.7555 10.416-9.5075 1.5161-0.63808-0.2449 3.5107 0.83484 4.7805 2.9647 3.4866 6.2792 1.8621 9.8812 4.4996 1.3119 0.96055-2.5625 0.70131-3.3905 2.2485z" stroke-width=".36304"/>
     </g>
    </g>
   </g>
  </g>
 </g>
</svg>
