<?xml version="1.0" encoding="UTF-8"?>
<!-- Created with Inkscape (http://www.inkscape.org/) -->
<svg id="svg8" width="500" height="500" version="1.1" viewBox="0 0 500 500" xmlns="http://www.w3.org/2000/svg" xmlns:cc="http://creativecommons.org/ns#" xmlns:dc="http://purl.org/dc/elements/1.1/" xmlns:rdf="http://www.w3.org/1999/02/22-rdf-syntax-ns#" xmlns:xlink="http://www.w3.org/1999/xlink">
 <defs id="defs8693">
  <pattern id="pattern11260" patternTransform="matrix(.060666 2.7373 -21.871 .48472 570.04 1271)" xlink:href="#Strips1_2"/>
  <pattern id="pattern11239" patternTransform="matrix(0 2.5436 30.006 0 131.45 908.77)" xlink:href="#Strips1_2"/>
  <pattern id="Strips1_2" width="3" height="1" patternTransform="translate(0) scale(10)" patternUnits="userSpaceOnUse">
   <rect id="rect5731" y="-.5" width="1" height="2"/>
  </pattern>
 </defs>
 <metadata id="metadata5">
  <rdf:RDF>
   <cc:Work rdf:about="">
    <dc:format>image/svg+xml</dc:format>
    <dc:type rdf:resource="http://purl.org/dc/dcmitype/StillImage"/>
    <dc:title/>
   </cc:Work>
  </rdf:RDF>
 </metadata>
 <g id="layer1" transform="translate(0,-573.6)">
  <g id="foundationBlock" transform="translate(-341.22 -443.72)">
   <g id="g5430" transform="translate(-53.033 22.728)">
    <g id="g7426" transform="translate(391.94 425.27)">
     <rect id="rect4579-5-3-2-0-9-4-2-3-0" transform="matrix(1 0 -.70549 .70872 0 0)" x="1155" y="1367.9" width="180.13" height="95.472" fill="#1d180f"/>
     <rect id="foundationWallNorth" x="189.97" y="924.38" width="180.43" height="45.109" fill="#5a3717"/>
     <rect id="foundationWallWest" transform="matrix(.70148 -.71269 0 1 0 0)" x="174.36" y="1117.4" width="96.458" height="45.109" fill="#976335"/>
     <rect id="foundationWallEast" transform="matrix(.70148 -.71269 0 1 0 0)" x="431.58" y="1300.7" width="96.458" height="45.109" fill="#976335"/>
     <rect id="foundationWallSouth" x="122.31" y="993.13" width="180.43" height="45.109" fill="#5a3717"/>
     <rect id="foundationWallSouth-8" x="122.31" y="993.12" width="180.43" height="45.109" fill="url(#pattern11239)" opacity=".5"/>
     <rect id="foundationWallEast-7" transform="matrix(.70148 -.71269 0 1 0 0)" x="431.13" y="1300.4" width="96.458" height="45.109" fill="url(#pattern11260)" opacity=".5"/>
    </g>
   </g>
  </g>
 </g>
</svg>
