<?xml version="1.0" encoding="UTF-8"?>
<!-- Created with Inkscape (http://www.inkscape.org/) -->
<svg id="svg8" width="500" height="500" version="1.1" viewBox="0 0 500 500" xmlns="http://www.w3.org/2000/svg" xmlns:cc="http://creativecommons.org/ns#" xmlns:dc="http://purl.org/dc/elements/1.1/" xmlns:rdf="http://www.w3.org/1999/02/22-rdf-syntax-ns#">
 <metadata id="metadata5">
  <rdf:RDF>
   <cc:Work rdf:about="">
    <dc:format>image/svg+xml</dc:format>
    <dc:type rdf:resource="http://purl.org/dc/dcmitype/StillImage"/>
    <dc:title/>
   </cc:Work>
  </rdf:RDF>
 </metadata>
 <g id="g5153" transform="translate(73.049 -340.75)">
  <rect id="rect4579-5-3-2-0-9" transform="matrix(1 0 -.70549 .70872 0 0)" x="718.52" y="856.01" width="180.13" height="95.472" fill="#9eb0b8"/>
  <g id="g5709">
   <rect id="rect4579-5-5-4" transform="matrix(.70711 -.70711 0 1 0 0)" x="321.57" y="901.72" width="95.69" height="90.217" fill="#7ea0b8"/>
   <rect id="rect4579-5-3" x="46.955" y="674.33" width="180.43" height="90.217" fill="#57819f"/>
   <g id="g7597" fill="#8ae4e4" fill-opacity=".68605" stroke="#35362b" stroke-width="5">
    <rect id="rect5589" x="62.109" y="689.71" width="41.681" height="62.138"/>
    <rect id="rect5589-6" x="175.07" y="686.8" width="38.768" height="62.138"/>
    <rect id="rect5589-9" x="121.05" y="680.18" width="37.974" height="80.412"/>
   </g>
   <path id="path6311" d="m119.89 726.55v3.6483h37.605v-3.6483z" color="#000000" color-rendering="auto" dominant-baseline="auto" fill="#35362b" image-rendering="auto" shape-rendering="auto" solid-color="#000000" style="font-feature-settings:normal;font-variant-alternates:normal;font-variant-caps:normal;font-variant-ligatures:normal;font-variant-numeric:normal;font-variant-position:normal;isolation:auto;mix-blend-mode:normal;shape-padding:0;text-decoration-color:#000000;text-decoration-line:none;text-decoration-style:solid;text-indent:0;text-orientation:mixed;text-transform:none;white-space:normal"/>
  </g>
 </g>
 <g id="text8152" transform="skewY(-45.671)" fill="#1a3177" aria-label="CSSco.">
  <path id="path8731" d="m319.69 686.37q-0.96629 0-0.96629-0.96629v-2.609q0-0.96629-0.96629-0.96629h-3.2371q-0.96629 0-0.96629 0.96629v11.04q0 0.96629 0.96629 0.96629h3.2371q0.96629 0 0.96629-0.96629v-2.3674q0-0.96629 0.96629-0.96629h0.26573q0.96629 0 0.96629 0.96629v3.068q0 0.70056-0.48314 1.1837l-0.79719 0.79719q-0.48315 0.48314-1.1837 0.48314h-4.6382q-0.70056 0-1.1837-0.48314l-0.79719-0.79719q-0.48315-0.48315-0.48315-1.1837v-12.441q0-0.70056 0.48315-1.1837l0.79719-0.79719q0.48314-0.48314 1.1837-0.48314h4.6382q0.70056 0 1.1837 0.48314l0.79719 0.79719q0.48314 0.48315 0.48314 1.1837v3.3096q0 0.96629-0.96629 0.96629z"/>
  <path id="path8733" d="m330.38 685.29q-0.96629 0-0.96629-0.96629v-1.9084q0-0.96629-0.96629-0.96629h-3.2371q-0.96629 0-0.96629 0.96629v3.841q0 0.96629 0.96629 0.96629h3.9618q0.70056 0 1.1837 0.48315l0.77304 0.77303q0.48314 0.48315 0.48314 1.1837v4.8798q0 0.70056-0.48314 1.2079l-0.77304 0.77304q-0.48314 0.48314-1.1837 0.48314h-4.6624q-0.70056 0-1.1837-0.48314l-0.79719-0.79719q-0.48314-0.48315-0.48314-1.1837v-2.3674q0-0.9663 0.96629-0.9663h0.26573q0.96629 0 0.96629 0.9663v1.6668q0 0.96629 0.96629 0.96629h3.2371q0.96629 0 0.96629-0.96629v-3.4786q0-0.96629-0.96629-0.96629h-3.9376q-0.72472 0-1.2079-0.48315l-0.77304-0.77303q-0.48314-0.48315-0.48314-1.1837v-5.2421q0-0.70056 0.48314-1.2079l0.77304-0.77303q0.48314-0.48315 1.1837-0.48315h4.6865q0.70056 0 1.1837 0.5073l0.77304 0.77304q0.48314 0.48314 0.48314 1.1837v2.609q0 0.96629-0.96629 0.96629z"/>
  <path id="path8735" d="m341.06 685.29q-0.9663 0-0.9663-0.96629v-1.9084q0-0.96629-0.96629-0.96629h-3.2371q-0.96629 0-0.96629 0.96629v3.841q0 0.96629 0.96629 0.96629h3.9618q0.70056 0 1.1837 0.48315l0.77303 0.77303q0.48315 0.48315 0.48315 1.1837v4.8798q0 0.70056-0.48315 1.2079l-0.77303 0.77304q-0.48315 0.48314-1.1837 0.48314h-4.6624q-0.70056 0-1.1837-0.48314l-0.79719-0.79719q-0.48315-0.48315-0.48315-1.1837v-2.3674q0-0.9663 0.9663-0.9663h0.26573q0.96629 0 0.96629 0.9663v1.6668q0 0.96629 0.96629 0.96629h3.2371q0.96629 0 0.96629-0.96629v-3.4786q0-0.96629-0.96629-0.96629h-3.9376q-0.72472 0-1.2079-0.48315l-0.77303-0.77303q-0.48315-0.48315-0.48315-1.1837v-5.2421q0-0.70056 0.48315-1.2079l0.77303-0.77303q0.48315-0.48315 1.1837-0.48315h4.6865q0.70056 0 1.1837 0.5073l0.77303 0.77304q0.48315 0.48314 0.48315 1.1837v2.609q0 0.96629-0.96629 0.96629z"/>
  <path id="path8737" d="m344.69 685.55q0.48314-0.48314 1.1837-0.48314h4.4208q0.96629 0 0.96629 0.96629v0.26573q0 0.96629-0.96629 0.96629h-3.7202q-0.96629 0-0.96629 0.96629v5.5803q0 0.96629 0.96629 0.96629h3.7202q0.96629 0 0.96629 0.96629v0.26573q0 0.9663-0.96629 0.9663h-4.4208q-0.70056 0-1.1837-0.48315l-0.79719-0.79719q-0.48315-0.48315-0.48315-1.1837v-6.9814q0-0.70056 0.48315-1.1837z"/>
  <path id="path8739" d="m359.3 686.32q0.48314 0.50731 0.48314 1.2079v7.0056q0 0.70056-0.48314 1.2079l-0.77303 0.77304q-0.48315 0.48314-1.1837 0.48314h-2.9955q-0.70056 0-1.1837-0.48314l-0.79719-0.79719q-0.48315-0.48315-0.48315-1.1837v-7.0056q0-0.70056 0.48315-1.1837l0.79719-0.79719q0.48315-0.48314 1.1837-0.48314h2.9955q0.70056 0 1.1837 0.48314zm-1.7152 1.9084q0-0.96629-0.96629-0.96629h-1.5702q-0.96629 0-0.96629 0.96629v5.6045q0 0.96629 0.96629 0.96629h1.5702q0.96629 0 0.96629-0.96629z"/>
  <path id="path8741" d="m363.11 698.23q0 0.9663-0.96629 0.9663h-0.50731q-0.96629 0-0.96629-0.9663v-1.0871q0-0.9663 0.96629-0.9663h0.50731q0.96629 0 0.96629 0.9663z"/>
 </g>
</svg>
