<?xml version="1.0" encoding="UTF-8"?>
<!-- Created with Inkscape (http://www.inkscape.org/) -->
<svg id="svg8" width="2e3" height="500" version="1.1" viewBox="0 0 2e3 500" xmlns="http://www.w3.org/2000/svg" xmlns:cc="http://creativecommons.org/ns#" xmlns:dc="http://purl.org/dc/elements/1.1/" xmlns:rdf="http://www.w3.org/1999/02/22-rdf-syntax-ns#">
 <defs id="defs2">
  <linearGradient id="linearGradient12776" x1="250" x2="250" y1="607.42" y2="1007.4" gradientTransform="matrix(4 0 0 .76267 0 172.38)" gradientUnits="userSpaceOnUse">
   <stop id="stop12770" stop-color="#6c7655" offset="0"/>
   <stop id="stop16368" stop-color="#747361" stop-opacity=".42797" offset=".5"/>
   <stop id="stop17252" stop-color="#594f2d" offset="1"/>
  </linearGradient>
  <linearGradient id="linearGradient12784" x1="250" x2="250" y1="607.42" y2="507.42" gradientTransform="matrix(4,0,0,1.2821,0,-143.16)" gradientUnits="userSpaceOnUse">
   <stop id="stop12778" stop-color="#fff" offset="0"/>
   <stop id="stop12780" stop-color="#b3c3ee" offset="1"/>
  </linearGradient>
  <style id="style12934">@keyframes talk{
      50% {transform: translate(-4%, 0);}
     }
     #cloud1{
      animation: talk 4.5s linear infinite;
     }
     #cloud2{
      animation: talk 2s linear infinite;
     }
     #cloud3{
      animation: talk 3s linear infinite;
     }</style>
  <linearGradient id="linearGradient17043" x1="1e3" x2="1e3" y1="952.62" y2="999.42" gradientUnits="userSpaceOnUse">
   <stop id="stop15291" stop-color="#6c6c6c" offset="0"/>
   <stop id="stop17254" stop-color="#767676" offset=".5"/>
   <stop id="stop15293" stop-color="#606060" offset="1"/>
  </linearGradient>
  <filter id="filter17063" x="-.059714" y="-.060288" width="1.1194" height="1.1206" color-interpolation-filters="sRGB">
   <feGaussianBlur id="feGaussianBlur17065" stdDeviation="4.2539534"/>
  </filter>
  <filter id="filter17093" x="-.10542" y="-.10736" width="1.2108" height="1.2147" color-interpolation-filters="sRGB">
   <feGaussianBlur id="feGaussianBlur17095" stdDeviation="4.8312361"/>
  </filter>
  <filter id="filter17127" x="-.10114" y="-.099636" width="1.2023" height="1.1993" color-interpolation-filters="sRGB">
   <feGaussianBlur id="feGaussianBlur17129" stdDeviation="6.7556061"/>
  </filter>
  <filter id="filter17161" x="-.097149" y="-.10319" width="1.1943" height="1.2064" color-interpolation-filters="sRGB">
   <feGaussianBlur id="feGaussianBlur17163" stdDeviation="7.6096543"/>
  </filter>
  <filter id="filter17063-5" x="-.059714" y="-.060288" width="1.1194" height="1.1206" color-interpolation-filters="sRGB">
   <feGaussianBlur id="feGaussianBlur17065-0" stdDeviation="4.2539534"/>
  </filter>
  <filter id="filter17093-8" x="-.10542" y="-.10736" width="1.2108" height="1.2147" color-interpolation-filters="sRGB">
   <feGaussianBlur id="feGaussianBlur17095-3" stdDeviation="4.8312361"/>
  </filter>
  <filter id="filter17063-9" x="-.059714" y="-.060288" width="1.1194" height="1.1206" color-interpolation-filters="sRGB">
   <feGaussianBlur id="feGaussianBlur17065-7" stdDeviation="4.2539534"/>
  </filter>
  <filter id="filter17127-8" x="-.10114" y="-.099636" width="1.2023" height="1.1993" color-interpolation-filters="sRGB">
   <feGaussianBlur id="feGaussianBlur17129-8" stdDeviation="6.7556061"/>
  </filter>
 </defs>
 <metadata id="metadata5">
  <rdf:RDF>
   <cc:Work rdf:about="">
    <dc:format>image/svg+xml</dc:format>
    <dc:type rdf:resource="http://purl.org/dc/dcmitype/StillImage"/>
    <dc:title/>
   </cc:Work>
  </rdf:RDF>
 </metadata>
 <g id="layer1" transform="translate(0,-507.42)">
  <rect id="rect10852-0" y="507.42" width="2e3" height="128.21" fill="url(#linearGradient12784)"/>
  <g id="g36" fill="#fff" fill-opacity=".79651">
   <path id="path17131" transform="matrix(1.748 0 0 .5478 -1022.7 512.97)" d="m1538.8 64.471c9.247 10.747-22.827 15.584-17.516 27.678 5.3112 12.094 28.494 7.9518 26.392 21.664-2.1013 13.712-27.513 19.117-34.54 31.628-7.0267 12.511 19.492 14.78 9.2247 24.613s-22.776 1.7731-35.712 5.264-3.6451 18.687-16.949 19.796c-13.304 1.1088-31.394-11.753-43.37-17.464s-19.906 26.671-30.161 17.438c-10.255-9.2331 6.0735-33.968-3.4901-44.12-9.5637-10.152-25.342 1.3635-29.463-11.636-4.1211-12.999 27.055-15.094 26.336-28.247-0.7187-13.153-35.253-23.24-28.969-35.174 6.2842-11.934 39.594-13.039 49.296-22.243 9.7024-9.2044-15.949-29.581-3.4484-33.362 12.501-3.7807 32.739 13.372 46.383 14.146s23.145-15.791 35.899-12.798 3.3215 25.561 13.636 34.666c10.314 9.1042 27.203-2.598 36.45 8.1491z" filter="url(#filter17161)"/>
   <path id="path17045-3" transform="matrix(1.6847 0 0 -.28025 18.199 618.11)" d="m381.34 47.044c-1.4541 4.1407-12.025 12.44-13.534 16.973-1.5089 4.5332-17.11 11.64-19.686 15.24-2.5758 3.6002 7.4168 3.9965 3.7306 6.902-3.6861 2.9055-4.8094 22.707-7.9578 25.751-3.1485 3.044-15.033-4.7371-18.968-2.2477-3.935 2.4893-8.7437 8.1374-13.426 9.3473-4.6826 1.2099-20.311-2.0971-24.863-1.4942s-23.318 2.9936-27.988 2.6535c-4.6708-0.34004 10.449-27.498 6.2076-29.248-4.2417-1.7501-25.53 9.0547-29.329 6.9613-3.7984-2.0934 4.1364-22.225 1.0222-25.629-3.1142-3.4038-28.586 6.6129-29.969 2.3294-1.3839-4.2835 20.599-20.96 18.714-24.908-1.8844-3.948-15.098-8.941-15.547-13.679-0.44927-4.7381 11.631-16.344 12.805-20.703 1.1737-4.3588-10.858-8.052-9.1568-12.077 1.7016-4.025 17.536 0.69003 19.315-3.4589s4.1807-24.508 7.7682-27.195 13.067-9.2482 16.809-11.464-7.0181 5.0498-2.5761 3.8401c4.4419-1.2096 8.3294-5.7343 12.854-6.9728s11-2.1202 15.282-1.2087c4.2817 0.91146 17.315 5.1929 21.578 7.0658 4.2632 1.873 23.894 0.62431 27.991 2.6861 4.097 2.0618 2.2386-1.5563 6.1629 0.75626 3.9243 2.3126 15.015 4.7654 18.097 7.7082 3.0822 2.9428 2.7883 22.315 5.5026 25.77 2.7144 3.4555 10.812-2.3027 11.448 2.5229 0.63575 4.8256-13.251 27.749-13.002 32.421 0.24958 4.6719 22.171 7.2166 20.717 11.357z" filter="url(#filter17063-5)"/>
   <path id="path17045-6" transform="matrix(1.3064 0 0 .24522 556.43 601.88)" d="m381.34 47.044c-1.4541 4.1407-12.025 12.44-13.534 16.973-1.5089 4.5332-17.11 11.64-19.686 15.24-2.5758 3.6002 7.4168 3.9965 3.7306 6.902-3.6861 2.9055-4.8094 22.707-7.9578 25.751-3.1485 3.044-15.033-4.7371-18.968-2.2477-3.935 2.4893-8.7437 8.1374-13.426 9.3473-4.6826 1.2099-20.311-2.0971-24.863-1.4942s-23.318 2.9936-27.988 2.6535c-4.6708-0.34004 10.449-27.498 6.2076-29.248-4.2417-1.7501-25.53 9.0547-29.329 6.9613-3.7984-2.0934 4.1364-22.225 1.0222-25.629-3.1142-3.4038-28.586 6.6129-29.969 2.3294-1.3839-4.2835 20.599-20.96 18.714-24.908-1.8844-3.948-15.098-8.941-15.547-13.679-0.44927-4.7381 11.631-16.344 12.805-20.703 1.1737-4.3588-10.858-8.052-9.1568-12.077 1.7016-4.025 17.536 0.69003 19.315-3.4589s4.1807-24.508 7.7682-27.195 13.067-9.2482 16.809-11.464-7.0181 5.0498-2.5761 3.8401c4.4419-1.2096 8.3294-5.7343 12.854-6.9728s11-2.1202 15.282-1.2087c4.2817 0.91146 17.315 5.1929 21.578 7.0658 4.2632 1.873 23.894 0.62431 27.991 2.6861 4.097 2.0618 2.2386-1.5563 6.1629 0.75626 3.9243 2.3126 15.015 4.7654 18.097 7.7082 3.0822 2.9428 2.7883 22.315 5.5026 25.77 2.7144 3.4555 10.812-2.3027 11.448 2.5229 0.63575 4.8256-13.251 27.749-13.002 32.421 0.24958 4.6719 22.171 7.2166 20.717 11.357z" filter="url(#filter17063-9)"/>
  </g>
  <rect id="rect10852-0-3" y="948.51" width="2e3" height="50.914" fill="url(#linearGradient17043)" stroke-width="1.2406"/>
  <path id="path15299" d="m9.036 975.42h36l4.4944-3h-36zm72 0h36l4.4944-3h-36zm72 0h36l4.4944-3h-36zm72 0h36l4.4944-3h-36zm72 0h36l4.4944-3h-36zm72 0h36l4.4944-3h-36zm72 0h36l4.4944-3h-36zm72 0h36l4.4944-3h-36zm72 0h36l4.4944-3h-36zm72 0h36l4.4944-3h-36zm72 0h36l4.4944-3h-36zm72 0h36l4.4944-3h-36zm72 0h36l4.4944-3h-36zm72 0h36l4.4944-3h-36zm72 0h36l4.4944-3h-36zm72 0h36l4.4944-3h-36zm72 0h36l4.4944-3h-36zm72 0h36l4.4944-3h-36zm72 0h36l4.4944-3h-36zm72 0h36l4.4944-3h-36zm72 0h36l4.4944-3h-36zm72 0h36l4.4944-3h-36zm72 0h36l4.4944-3h-36zm72 0h36l4.4944-3h-36zm72 0h36l4.4944-3h-36zm72 0h36l4.4944-3h-36zm72 0h36l4.4944-3h-36zm72 0h36l4.4944-3h-36z" color="#000000" color-rendering="auto" dominant-baseline="auto" fill="#d7b508" image-rendering="auto" shape-rendering="auto" solid-color="#000000" style="font-feature-settings:normal;font-variant-alternates:normal;font-variant-caps:normal;font-variant-ligatures:normal;font-variant-numeric:normal;font-variant-position:normal;isolation:auto;mix-blend-mode:normal;shape-padding:0;text-decoration-color:#000000;text-decoration-line:none;text-decoration-style:solid;text-indent:0;text-orientation:mixed;text-transform:none;white-space:normal"/>
  <g id="g45" fill="#fff" fill-opacity=".79651">
   <path id="path17045" transform="matrix(1.2784 0 0 .52282 -104.54 547.59)" d="m381.34 47.044c-1.4541 4.1407-12.025 12.44-13.534 16.973-1.5089 4.5332-17.11 11.64-19.686 15.24-2.5758 3.6002 7.4168 3.9965 3.7306 6.902-3.6861 2.9055-4.8094 22.707-7.9578 25.751-3.1485 3.044-15.033-4.7371-18.968-2.2477-3.935 2.4893-8.7437 8.1374-13.426 9.3473-4.6826 1.2099-20.311-2.0971-24.863-1.4942s-23.318 2.9936-27.988 2.6535c-4.6708-0.34004 10.449-27.498 6.2076-29.248-4.2417-1.7501-25.53 9.0547-29.329 6.9613-3.7984-2.0934 4.1364-22.225 1.0222-25.629-3.1142-3.4038-28.586 6.6129-29.969 2.3294-1.3839-4.2835 20.599-20.96 18.714-24.908-1.8844-3.948-15.098-8.941-15.547-13.679-0.44927-4.7381 11.631-16.344 12.805-20.703 1.1737-4.3588-10.858-8.052-9.1568-12.077 1.7016-4.025 17.536 0.69003 19.315-3.4589s4.1807-24.508 7.7682-27.195 13.067-9.2482 16.809-11.464-7.0181 5.0498-2.5761 3.8401c4.4419-1.2096 8.3294-5.7343 12.854-6.9728s11-2.1202 15.282-1.2087c4.2817 0.91146 17.315 5.1929 21.578 7.0658 4.2632 1.873 23.894 0.62431 27.991 2.6861 4.097 2.0618 2.2386-1.5563 6.1629 0.75626 3.9243 2.3126 15.015 4.7654 18.097 7.7082 3.0822 2.9428 2.7883 22.315 5.5026 25.77 2.7144 3.4555 10.812-2.3027 11.448 2.5229 0.63575 4.8256-13.251 27.749-13.002 32.421 0.24958 4.6719 22.171 7.2166 20.717 11.357z" filter="url(#filter17063)"/>
   <path id="path17067" transform="matrix(3.2886 0 0 .50894 -1120.5 521.96)" d="m618.4 73.305c-0.49501 4.6339-16.59 6.5986-18.44 10.741s-0.0617 10.441-3.1822 13.669c-3.1205 3.2279-16.356 1.7431-20.557 3.4407-4.2014 1.6975-11.666 15.181-16.331 14.849s-8.1144-12.188-12.545-13.705-13.777 2.0018-17.37-0.86308c-3.5928-2.8649-6.0532-16.971-8.2757-20.95s-12.085-7.774-13.186-12.161 8.7306-13.748 9.4559-18.36c0.72533-4.612-4.9964-10.761-2.2944-14.433 2.702-3.6727 16.121-8.3909 19.889-11.278 3.7687-2.8875 5.1642-13.978 9.3958-16.021s13.726 10.973 18.242 11.029c4.5156 0.05607 12.084-12.021 16.361-10.421 4.2767 1.6007 9.2428 12.195 12.941 14.995 3.6979 2.8 12.193 8.5948 14.75 12.442 2.5564 3.8467 0.91977 8.7379 1.3344 13.447 0.41463 4.7094 10.308 18.947 9.8133 23.581z" filter="url(#filter17093)"/>
   <path id="path17097" transform="matrix(.82356 0 0 .44422 179.7 521.89)" d="m1201.4 72.022c2.0863 6.7839 1.5127 19.852 1.4743 26.81-0.039 6.9577 9.8192 20.617 7.5985 27.62-2.2206 7.0028-17.697 10.8-21.227 16.769-3.5308 5.9689-11.11 19.14-17.035 22.816-5.9251 3.6759-21.103-0.93805-28.098 0.94688-6.9947 1.8849-20.408 16.506-27.568 15.818-7.1595-0.68774-17.141-17.847-23.717-21.122-6.5762-3.2752-20.934 2.1227-25.665-3.2412-4.7309-5.3639-0.7903-25.69-2.9317-32.457-2.1413-6.767-12.987-19.047-13.674-26.128-0.687-7.0811 4.4666-6.702 5.8031-13.783 1.3365-7.0813 2.6774-28.698 6.8499-34.345 4.1726-5.6474 16.241-0.45266 22.255-4.6855 6.0139-4.2328 22.63-24.295 29.234-26.584 6.6032-2.2896 16.052 7.188 23.042 7.6461 6.989 0.45807 26.859-6.14 33.065-2.1423 6.2057 3.9977 3.858 16.053 9.2505 20.896 5.3924 4.8436 19.257 18.383 21.343 25.167z" filter="url(#filter17127)"/>
   <path id="path17067-4" transform="matrix(3.2886 0 0 -.50894 54.893 572.36)" d="m618.4 73.305c-0.49501 4.6339-16.59 6.5986-18.44 10.741s-0.0617 10.441-3.1822 13.669c-3.1205 3.2279-16.356 1.7431-20.557 3.4407-4.2014 1.6975-11.666 15.181-16.331 14.849s-8.1144-12.188-12.545-13.705-13.777 2.0018-17.37-0.86308c-3.5928-2.8649-6.0532-16.971-8.2757-20.95s-12.085-7.774-13.186-12.161 8.7306-13.748 9.4559-18.36c0.72533-4.612-4.9964-10.761-2.2944-14.433 2.702-3.6727 16.121-8.3909 19.889-11.278 3.7687-2.8875 5.1642-13.978 9.3958-16.021s13.726 10.973 18.242 11.029c4.5156 0.05607 12.084-12.021 16.361-10.421 4.2767 1.6007 9.2428 12.195 12.941 14.995 3.6979 2.8 12.193 8.5948 14.75 12.442 2.5564 3.8467 0.91977 8.7379 1.3344 13.447 0.41463 4.7094 10.308 18.947 9.8133 23.581z" filter="url(#filter17093-8)"/>
   <path id="path17097-7" transform="matrix(1.1024 0 0 .59462 -1213.9 483.76)" d="m1201.4 72.022c2.0863 6.7839 1.5127 19.852 1.4743 26.81-0.039 6.9577 9.8192 20.617 7.5985 27.62-2.2206 7.0028-17.697 10.8-21.227 16.769-3.5308 5.9689-11.11 19.14-17.035 22.816-5.9251 3.6759-21.103-0.93805-28.098 0.94688-6.9947 1.8849-20.408 16.506-27.568 15.818-7.1595-0.68774-17.141-17.847-23.717-21.122-6.5762-3.2752-20.934 2.1227-25.665-3.2412-4.7309-5.3639-0.7903-25.69-2.9317-32.457-2.1413-6.767-12.987-19.047-13.674-26.128-0.687-7.0811 4.4666-6.702 5.8031-13.783 1.3365-7.0813 2.6774-28.698 6.8499-34.345 4.1726-5.6474 16.241-0.45266 22.255-4.6855 6.0139-4.2328 22.63-24.295 29.234-26.584 6.6032-2.2896 16.052 7.188 23.042 7.6461 6.989 0.45807 26.859-6.14 33.065-2.1423 6.2057 3.9977 3.858 16.053 9.2505 20.896 5.3924 4.8436 19.257 18.383 21.343 25.167z" filter="url(#filter17127-8)"/>
  </g>
  <rect id="rect10852" y="635.63" width="2e3" height="305.07" fill="url(#linearGradient12776)" stroke-width=".98102"/>
 </g>
</svg>
