<?xml version="1.0" encoding="UTF-8"?>
<!-- Created with Inkscape (http://www.inkscape.org/) -->
<svg id="svg8" width="75" height="75" version="1.1" viewBox="0 0 75 75" xmlns="http://www.w3.org/2000/svg" xmlns:cc="http://creativecommons.org/ns#" xmlns:dc="http://purl.org/dc/elements/1.1/" xmlns:rdf="http://www.w3.org/1999/02/22-rdf-syntax-ns#">
 <defs id="defs2">
  <style id="style12934">@keyframes talk{
      50% {transform: translate(-4%, 0);}
     }
     #cloud1{
      animation: talk 4.5s linear infinite;
     }
     #cloud2{
      animation: talk 2s linear infinite;
     }
     #cloud3{
      animation: talk 3s linear infinite;
     }</style>
 </defs>
 <metadata id="metadata5">
  <rdf:RDF>
   <cc:Work rdf:about="">
    <dc:format>image/svg+xml</dc:format>
    <dc:type rdf:resource="http://purl.org/dc/dcmitype/StillImage"/>
    <dc:title/>
   </cc:Work>
  </rdf:RDF>
 </metadata>
 <g id="g5682" transform="matrix(.25909 0 0 .25909 -207.13 -232.41)">
  <rect id="rect4579-5-3-2-0-9-3-2-0-5-3" transform="matrix(1 0 -.70412 .71009 0 0)" x="1920.2" y="1498.9" width="206.47" height="35.286" fill="#7a6147" stroke-width="1.0663"/>
  <rect id="rect4579-5-3-2-0-9-3-2-0-4-5-7-8-1-0" transform="matrix(1 0 -.70412 .71009 0 0)" x="1921.7" y="1502" width="93.512" height="29.484" fill="#251d15" stroke-width=".59288"/>
  <g id="g4150">
   <rect id="rect4579-5-3-2-0-9-3-2-0-4-8-0-7-9-2" transform="matrix(1 0 -.70412 .71009 0 0)" x="2018" y="1508.8" width="45.883" height="19.619" stroke-width=".59288"/>
   <g id="g5703" fill="#49b8aa" fill-opacity=".59884">
    <rect id="rect4579-5-5-4-4-5-0-5-5-7-3-5" transform="matrix(.70574 -.70848 0 1 0 0)" x="1399.7" y="2046.9" width="19.55" height="29.937" stroke-width=".59346"/>
    <rect id="rect4579-5-3-5-4-3-3-5-5-9-0" x="941.78" y="1055.3" width="46.027" height="30.017" stroke-width=".84094"/>
    <rect id="rect4579-5-5-4-4-5-0-5-2-0-5-0-0" transform="matrix(.70574 -.70848 0 1 0 0)" x="1334.5" y="2000.7" width="19.664" height="30.017" stroke-width=".59346"/>
   </g>
   <rect id="rect4579-5-3-2-0-9-3-2-0-4-5-7-8-1" transform="matrix(1 0 -.70412 .71009 0 0)" x="1988.3" y="1466.5" width="45.964" height="19.619" fill="#7a6147" stroke-width=".59288"/>
  </g>
  <g id="g5712">
   <rect id="rect4579-5-5-4-4-5-0-4-9-4" transform="matrix(.70574 -.70848 0 1 0 0)" x="1190.2" y="1932.6" width="37.568" height="32.584" ry="0" fill="#1d1711" stroke-width="1.0674"/>
   <rect id="rect4579-5-3-5-4-3-9-4" x="839.8" y="1089.4" width="206.62" height="33.408" fill="#372c20" stroke-width="1.8797"/>
   <rect id="rect4579-5-5-4-4-5-0-4-9" transform="matrix(.70574 -.70848 0 1 0 0)" x="1482.7" y="2139.9" width="35.366" height="33.408" ry="0" fill="#544331" stroke-width="1.0674"/>
   <ellipse id="path10891-4-7-7-8-4-9" cx="1002.7" cy="1124.3" rx="12.96" ry="13.076" fill="#999" stroke="#0b0b0b" stroke-width="10"/>
   <ellipse id="path10891-4-7-7-8-4" cx="892.07" cy="1124.3" rx="12.96" ry="13.076" fill="#999" stroke="#0b0b0b" stroke-width="10"/>
  </g>
 </g>
 <ellipse id="path13343" cx="65.561" cy="52.669" rx=".84269" ry="1.4607" fill="#fff5a0"/>
 <ellipse id="path13343-4" cx="68.932" cy="49.242" rx=".84269" ry="1.4607" fill="#fff5a0"/>
</svg>
