<?xml version="1.0" encoding="UTF-8"?>
<!-- Created with Inkscape (http://www.inkscape.org/) -->
<svg id="svg8" width="75" height="75" version="1.1" viewBox="0 0 75 75" xmlns="http://www.w3.org/2000/svg" xmlns:cc="http://creativecommons.org/ns#" xmlns:dc="http://purl.org/dc/elements/1.1/" xmlns:rdf="http://www.w3.org/1999/02/22-rdf-syntax-ns#">
 <defs id="defs2">
  <style id="style12934">@keyframes talk{
      50% {transform: translate(-4%, 0);}
     }
     #cloud1{
      animation: talk 4.5s linear infinite;
     }
     #cloud2{
      animation: talk 2s linear infinite;
     }
     #cloud3{
      animation: talk 3s linear infinite;
     }</style>
  <filter id="filter6369" x="-.062713" y="-.49147" width="1.1254" height="1.9829" color-interpolation-filters="sRGB">
   <feGaussianBlur id="feGaussianBlur6371" stdDeviation="6.773238"/>
  </filter>
 </defs>
 <metadata id="metadata5">
  <rdf:RDF>
   <cc:Work rdf:about="">
    <dc:format>image/svg+xml</dc:format>
    <dc:type rdf:resource="http://purl.org/dc/dcmitype/StillImage"/>
    <dc:title/>
   </cc:Work>
  </rdf:RDF>
 </metadata>
 <rect id="rect4579-5-3-2-0-9-3-2-0-5-1" transform="matrix(.30804 0 -.21689 .19264 -218.65 -189.58)" x="1667.9" y="1273" width="160.77" height="33.076" fill="#291502" fill-opacity=".64244" filter="url(#filter6369)" stroke-width=".99953"/>
 <g id="g5712" transform="matrix(.25909 0 0 .25909 -207.13 -232.41)">
  <rect id="rect4579-5-3-5-4-3-9-4" x="839.8" y="1019.8" width="206.62" height="103.02" fill="#2c2c2c" stroke-width="3.3008"/>
  <rect id="rect4579-5-5-4-4-5-0-4-9" transform="matrix(.70574 -.70848 0 1 0 0)" x="1482.7" y="2070.3" width="35.339" height="103.03" ry="0" fill="#555" stroke-width="1.0674"/>
  <ellipse id="path10891-4-7-7-8-4-9" cx="1002.7" cy="1124.3" rx="12.96" ry="13.076" fill="#999" stroke="#0b0b0b" stroke-width="10"/>
  <ellipse id="path10891-4-7-7-8-4" cx="892.07" cy="1124.3" rx="12.96" ry="13.076" fill="#999" stroke="#0b0b0b" stroke-width="10"/>
 </g>
 <g id="g14555">
  <rect id="rect4579-5-3-2-0-9-3-2-0-5-3" transform="matrix(1 0 -.70412 .71009 0 0)" x="42.033" y="35.652" width="53.494" height="9.1423" fill="#787878" stroke-width=".27627"/>
  <rect id="rect4579-5-5-4-4-5-0-5-5-7-3-5" transform="matrix(.70574 -.70848 0 1 0 0)" x="92.796" y="99.586" width="5.0652" height="7.7564" fill="#4cb0b9" stroke-width=".15376"/>
  <rect id="rect4579-5-3-5-4-3-3-5-5-9-0" x="49.985" y="35.446" width="11.925" height="7.7771" fill="#3a8d95" stroke-width=".21788"/>
  <g id="text7651" transform="rotate(-20.51)" fill="#b5b5b5" stroke-width=".20166" aria-label="CSSco.">
   <path id="path15108" d="m6.2369 49.89q-0.32266 0-0.32266-0.32266v-0.87117q0-0.32266-0.32266-0.32266h-1.0809q-0.32266 0-0.32266 0.32266v3.6863q0 0.32266 0.32266 0.32266h1.0809q0.32266 0 0.32266-0.32266v-0.79051q0-0.32266 0.32266-0.32266h0.08873q0.32266 0 0.32266 0.32266v1.0244q0 0.23392-0.16133 0.39525l-0.26619 0.26619q-0.16133 0.16133-0.39525 0.16133h-1.5487q-0.23393 0-0.39525-0.16133l-0.26619-0.26619q-0.16133-0.16133-0.16133-0.39525v-4.1542q0-0.23393 0.16133-0.39525l0.26619-0.26619q0.16133-0.16133 0.39525-0.16133h1.5487q0.23393 0 0.39525 0.16133l0.26619 0.26619q0.16133 0.16133 0.16133 0.39525v1.1051q0 0.32266-0.32266 0.32266z"/>
   <path id="path15110" d="m10.239 49.527q-0.32266 0-0.32266-0.32266v-0.63725q0-0.32266-0.32266-0.32266h-1.0809q-0.32266 0-0.32266 0.32266v1.2826q0 0.32266 0.32266 0.32266h1.3229q0.23393 0 0.39525 0.16133l0.25812 0.25812q0.16133 0.16133 0.16133 0.39525v1.6294q0 0.23392-0.16133 0.40332l-0.25812 0.25812q-0.16133 0.16133-0.39525 0.16133h-1.5568q-0.23393 0-0.39525-0.16133l-0.26619-0.26619q-0.16133-0.16133-0.16133-0.39525v-0.79051q0-0.32266 0.32266-0.32266h0.08873q0.32266 0 0.32266 0.32266v0.55658q0 0.32266 0.32266 0.32266h1.0809q0.32266 0 0.32266-0.32266v-1.1616q0-0.32266-0.32266-0.32266h-1.3148q-0.24199 0-0.40332-0.16133l-0.25812-0.25812q-0.16133-0.16133-0.16133-0.39525v-1.7504q0-0.23392 0.16133-0.40332l0.25812-0.25812q0.16133-0.16133 0.39525-0.16133h1.5649q0.23393 0 0.39525 0.16939l0.25812 0.25812q0.16133 0.16133 0.16133 0.39525v0.87117q0 0.32266-0.32266 0.32266z"/>
   <path id="path15112" d="m14.24 49.527q-0.32266 0-0.32266-0.32266v-0.63725q0-0.32266-0.32266-0.32266h-1.0809q-0.32266 0-0.32266 0.32266v1.2826q0 0.32266 0.32266 0.32266h1.3229q0.23393 0 0.39525 0.16133l0.25812 0.25812q0.16133 0.16133 0.16133 0.39525v1.6294q0 0.23392-0.16133 0.40332l-0.25812 0.25812q-0.16133 0.16133-0.39525 0.16133h-1.5568q-0.23393 0-0.39525-0.16133l-0.26619-0.26619q-0.16133-0.16133-0.16133-0.39525v-0.79051q0-0.32266 0.32266-0.32266h0.08873q0.32266 0 0.32266 0.32266v0.55658q0 0.32266 0.32266 0.32266h1.0809q0.32266 0 0.32266-0.32266v-1.1616q0-0.32266-0.32266-0.32266h-1.3148q-0.24199 0-0.40332-0.16133l-0.25812-0.25812q-0.16133-0.16133-0.16133-0.39525v-1.7504q0-0.23392 0.16133-0.40332l0.25812-0.25812q0.16133-0.16133 0.39525-0.16133h1.5649q0.23393 0 0.39525 0.16939l0.25812 0.25812q0.16133 0.16133 0.16133 0.39525v0.87117q0 0.32266-0.32266 0.32266z"/>
   <path id="path15114" d="m15.887 49.616q0.16133-0.16133 0.39525-0.16133h1.4762q0.32266 0 0.32266 0.32266v0.08873q0 0.32266-0.32266 0.32266h-1.2422q-0.32266 0-0.32266 0.32266v1.8633q0 0.32266 0.32266 0.32266h1.2422q0.32266 0 0.32266 0.32266v0.08873q0 0.32266-0.32266 0.32266h-1.4762q-0.23393 0-0.39525-0.16133l-0.26619-0.26619q-0.16133-0.16133-0.16133-0.39525v-2.3312q0-0.23393 0.16133-0.39525z"/>
   <path id="path15116" d="m21.197 49.874q0.16133 0.16939 0.16133 0.40332v2.3393q0 0.23392-0.16133 0.40332l-0.25812 0.25812q-0.16133 0.16133-0.39525 0.16133h-1.0002q-0.23393 0-0.39525-0.16133l-0.26619-0.26619q-0.16133-0.16133-0.16133-0.39525v-2.3393q0-0.23393 0.16133-0.39525l0.26619-0.26619q0.16133-0.16133 0.39525-0.16133h1.0002q0.23393 0 0.39525 0.16133zm-0.57272 0.63724q0-0.32266-0.32266-0.32266h-0.52432q-0.32266 0-0.32266 0.32266v1.8714q0 0.32266 0.32266 0.32266h0.52432q0.32266 0 0.32266-0.32266z"/>
   <path id="path15118" d="m22.905 53.851q0 0.32266-0.32266 0.32266h-0.1694q-0.32266 0-0.32266-0.32266v-0.36299q0-0.32266 0.32266-0.32266h0.1694q0.32266 0 0.32266 0.32266z"/>
  </g>
  <ellipse id="path13343" cx="65.505" cy="53.174" rx=".84269" ry="1.4607" fill="#fff9d8"/>
  <ellipse id="path13343-4" cx="68.875" cy="49.748" rx=".84269" ry="1.4607" fill="#fff9d8"/>
 </g>
</svg>
